<?xml version="1.0" encoding="UTF-8" standalone="no"?>
<svg
   width="1041.277"
   height="554.141"
   viewBox="0 0 1041.277 554.141"
   version="1.1"
   id="svg4116"
   sodipodi:docname="undraw_docusaurus_react.svg"
   xml:space="preserve"
   inkscape:version="1.2.2 (732a01da63, 2022-12-09)"
   xmlns:inkscape="http://www.inkscape.org/namespaces/inkscape"
   xmlns:sodipodi="http://sodipodi.sourceforge.net/DTD/sodipodi-0.dtd"
   xmlns="http://www.w3.org/2000/svg"
   xmlns:svg="http://www.w3.org/2000/svg"><defs
     id="defs4120" /><sodipodi:namedview
     id="namedview4118"
     pagecolor="#ffffff"
     bordercolor="#000000"
     borderopacity="0.25"
     inkscape:showpageshadow="2"
     inkscape:pageopacity="0.0"
     inkscape:pagecheckerboard="0"
     inkscape:deskcolor="#d1d1d1"
     showgrid="false"
     inkscape:zoom="0.50998649"
     inkscape:cx="395.1085"
     inkscape:cy="299.02753"
     inkscape:window-width="1649"
     inkscape:window-height="1259"
     inkscape:window-x="1166"
     inkscape:window-y="174"
     inkscape:window-maximized="0"
     inkscape:current-layer="svg4116" /><title
     id="title3958">Powered by React</title><g
     id="Group_23"
     data-name="Group 23"
     transform="translate(-0.011,-0.035)"><path
       id="Path_299"
       data-name="Path 299"
       d="m 1040.82,611.12 q -1.74,3.75 -3.47,7.4 -2.7,5.67 -5.33,11.12 c -0.78,1.61 -1.56,3.19 -2.32,4.77 -8.6,17.57 -16.63,33.11 -23.45,45.89 A 73.21,73.21 0 0 1 942.44,719 l -151.65,1.65 h -1.6 l -13,0.14 -11.12,0.12 -34.1,0.37 h -1.38 l -17.36,0.19 h -0.53 l -107,1.16 -95.51,1 -11.11,0.12 -69,0.75 H 429 l -44.75,0.48 h -0.48 l -141.5,1.53 -42.33,0.46 a 87.991,87.991 0 0 1 -10.79,-0.54 v 0 c -1.22,-0.14 -2.44,-0.3 -3.65,-0.49 A 87.38,87.38 0 0 1 134.21,698.4 C 116,678.37 102.75,655 93.85,629.64 q -1.93,-5.49 -3.6,-11.12 C 59.44,514.37 97,380 164.6,290.08 q 4.25,-5.64 8.64,-11 l 0.07,-0.08 c 20.79,-25.52 44.1,-46.84 68.93,-62 44,-26.91 92.75,-34.49 140.7,-11.9 40.57,19.12 78.45,28.11 115.17,30.55 3.71,0.24 7.42,0.42 11.11,0.53 84.23,2.65 163.17,-27.7 255.87,-47.29 3.69,-0.78 7.39,-1.55 11.12,-2.28 66.13,-13.16 139.49,-20.1 226.73,-5.51 a 189.089,189.089 0 0 1 26.76,6.4 q 5.77,1.86 11.12,4 c 41.64,16.94 64.35,48.24 74,87.46 q 1.37,5.46 2.37,11.11 c 17.11,94.34 -33,228.16 -76.37,321.05 z"
       transform="translate(-79.34,-172.91)"
       fill="#f2f2f2" /><path
       id="Path_300"
       data-name="Path 300"
       d="m 576.36,618.52 a 95.21,95.21 0 0 1 -1.87,11.12 h 93.7 v -11.12 z m -78.25,62.81 11.11,-0.09 v -27.47 c -3.81,-0.17 -7.52,-0.34 -11.11,-0.52 z M 265.19,618.52 v 11.12 h 198.5 V 618.52 Z M 1114.87,279 h -74 v -87.49 q -5.35,-2.17 -11.12,-4 V 279 H 776.21 v -92.42 c -3.73,0.73 -7.43,1.5 -11.12,2.28 V 279 H 509.22 v -42.85 c -3.69,-0.11 -7.4,-0.29 -11.11,-0.53 V 279 H 242.24 v -62 c -24.83,15.16 -48.14,36.48 -68.93,62 h -0.07 v 0.08 q -4.4,5.4 -8.64,11 h 8.64 v 328.44 h -83 q 1.66,5.63 3.6,11.12 h 79.39 v 93.62 a 87,87 0 0 0 12.2,2.79 c 1.21,0.19 2.43,0.35 3.65,0.49 v 0 a 87.991,87.991 0 0 0 10.79,0.54 l 42.33,-0.46 v -97 h 255.91 v 94.21 l 11.11,-0.12 V 629.64 H 765.09 V 721 l 11.12,-0.12 v -91.24 h 253.49 v 4.77 c 0.76,-1.58 1.54,-3.16 2.32,-4.77 q 2.63,-5.45 5.33,-11.12 1.73,-3.64 3.47,-7.4 v -321 h 76.42 q -1.01,-5.69 -2.37,-11.12 z M 242.24,618.52 V 290.08 h 255.87 v 328.44 z m 267,0 V 290.08 h 255.85 v 328.44 z m 520.48,0 H 776.21 V 290.08 h 253.49 z"
       transform="translate(-79.34,-172.91)"
       opacity="0.1" /><path
       id="Path_301"
       data-name="Path 301"
       d="m 863.09,533.65 v 13 l -151.92,1.4 -1.62,0.03 -57.74,0.53 -1.38,0.02 -17.55,0.15 h -0.52 l -106.98,0.99 -175.61,1.63 h -0.15 l -44.65,0.42 -0.48,0.01 -198.4,1.82 v -15 l 46.65,-28 93.6,-0.78 2,-0.01 0.66,-0.01 2,-0.03 44.94,-0.37 2.01,-0.01 0.64,-0.01 2,-0.01 14.41,-0.12 0.38,-0.01 35.55,-0.3 h 0.29 l 277.4,-2.34 6.79,-0.05 h 0.68 l 5.18,-0.05 37.65,-0.31 2,-0.03 1.85,-0.02 h 0.96 l 11.71,-0.09 2.32,-0.03 3.11,-0.02 9.75,-0.09 15.47,-0.13 2,-0.02 3.48,-0.02 h 0.65 l 74.71,-0.64 z"
       fill="#65617d" /><path
       id="Path_302"
       data-name="Path 302"
       d="m 863.09,533.65 v 13 l -151.92,1.4 -1.62,0.03 -57.74,0.53 -1.38,0.02 -17.55,0.15 h -0.52 l -106.98,0.99 -175.61,1.63 h -0.15 l -44.65,0.42 -0.48,0.01 -198.4,1.82 v -15 l 46.65,-28 93.6,-0.78 2,-0.01 0.66,-0.01 2,-0.03 44.94,-0.37 2.01,-0.01 0.64,-0.01 2,-0.01 14.41,-0.12 0.38,-0.01 35.55,-0.3 h 0.29 l 277.4,-2.34 6.79,-0.05 h 0.68 l 5.18,-0.05 37.65,-0.31 2,-0.03 1.85,-0.02 h 0.96 l 11.71,-0.09 2.32,-0.03 3.11,-0.02 9.75,-0.09 15.47,-0.13 2,-0.02 3.48,-0.02 h 0.65 l 74.71,-0.64 z"
       opacity="0.2" /><path
       id="Path_303"
       data-name="Path 303"
       d="m 375.44,656.57 v 24.49 a 6.13,6.13 0 0 1 -3.5,5.54 6,6 0 0 1 -2.5,0.6 l -34.9,0.74 a 6,6 0 0 1 -2.7,-0.57 6.12,6.12 0 0 1 -3.57,-5.57 v -25.23 z"
       transform="translate(-79.34,-172.91)"
       fill="#3f3d56" /><path
       id="Path_304"
       data-name="Path 304"
       d="m 375.44,656.57 v 24.49 a 6.13,6.13 0 0 1 -3.5,5.54 6,6 0 0 1 -2.5,0.6 l -34.9,0.74 a 6,6 0 0 1 -2.7,-0.57 6.12,6.12 0 0 1 -3.57,-5.57 v -25.23 z"
       transform="translate(-79.34,-172.91)"
       opacity="0.1" /><path
       id="Path_305"
       data-name="Path 305"
       d="m 377.44,656.57 v 24.49 a 6.13,6.13 0 0 1 -3.5,5.54 6,6 0 0 1 -2.5,0.6 l -34.9,0.74 a 6,6 0 0 1 -2.7,-0.57 6.12,6.12 0 0 1 -3.57,-5.57 v -25.23 z"
       transform="translate(-79.34,-172.91)"
       fill="#3f3d56" /><rect
       id="Rectangle_137"
       data-name="Rectangle 137"
       width="47.169998"
       height="31.5"
       transform="translate(680.92,483.65)"
       fill="#3f3d56"
       x="0"
       y="0" /><rect
       id="Rectangle_138"
       data-name="Rectangle 138"
       width="47.169998"
       height="31.5"
       transform="translate(680.92,483.65)"
       opacity="0.1"
       x="0"
       y="0" /><rect
       id="Rectangle_139"
       data-name="Rectangle 139"
       width="47.169998"
       height="31.5"
       transform="translate(678.92,483.65)"
       fill="#3f3d56"
       x="0"
       y="0" /><path
       id="Path_306"
       data-name="Path 306"
       d="m 298.09,483.65 v 4.97 l -47.17,1.26 v -6.23 z"
       opacity="0.1" /><path
       id="Path_307"
       data-name="Path 307"
       d="m 460.69,485.27 v 168.2 a 4,4 0 0 1 -3.85,3.95 l -191.65,5.1 h -0.05 a 4,4 0 0 1 -3.95,-3.95 v -173.3 a 4,4 0 0 1 3.95,-3.95 h 191.6 a 4,4 0 0 1 3.95,3.95 z"
       transform="translate(-79.34,-172.91)"
       fill="#65617d" /><path
       id="Path_308"
       data-name="Path 308"
       d="m 265.19,481.32 v 181.2 h -0.05 a 4,4 0 0 1 -3.95,-3.95 v -173.3 a 4,4 0 0 1 3.95,-3.95 z"
       transform="translate(-79.34,-172.91)"
       opacity="0.1" /><path
       id="Path_309"
       data-name="Path 309"
       d="m 194.59,319.15 h 177.5 V 467.4 l -177.5,4 z"
       fill="#39374d" /><path
       id="Path_310"
       data-name="Path 310"
       d="m 726.09,483.65 v 6.41 l -47.17,-1.26 v -5.15 z"
       opacity="0.1" /><path
       id="Path_311"
       data-name="Path 311"
       d="m 867.69,485.27 v 173.3 a 4,4 0 0 1 -4,3.95 v 0 L 672,657.42 a 4,4 0 0 1 -3.85,-3.95 v -168.2 a 4,4 0 0 1 3.95,-3.95 h 191.6 a 4,4 0 0 1 3.99,3.95 z"
       transform="translate(-79.34,-172.91)"
       fill="#65617d" /><path
       id="Path_312"
       data-name="Path 312"
       d="m 867.69,485.27 v 173.3 a 4,4 0 0 1 -4,3.95 v 0 -181.2 0 a 4,4 0 0 1 4,3.95 z"
       transform="translate(-79.34,-172.91)"
       opacity="0.1" /><path
       id="Path_313"
       data-name="Path 313"
       d="M 775.59,319.15 H 598.09 V 467.4 l 177.5,4 z"
       fill="#39374d" /><path
       id="Path_314"
       data-name="Path 314"
       d="m 663.19,485.27 v 168.2 a 4,4 0 0 1 -3.85,3.95 l -191.65,5.1 v 0 a 4,4 0 0 1 -4,-3.95 v -173.3 a 4,4 0 0 1 3.95,-3.95 h 191.6 a 4,4 0 0 1 3.95,3.95 z"
       transform="translate(-79.34,-172.91)"
       fill="#65617d" /><path
       id="Path_315"
       data-name="Path 315"
       d="m 397.09,319.15 h 177.5 V 467.4 l -177.5,4 z"
       fill="#4267b2"
       style="fill:#483e37" /><path
       id="Path_316"
       data-name="Path 316"
       d="m 863.09,533.65 v 13 l -151.92,1.4 -1.62,0.03 -57.74,0.53 -1.38,0.02 -17.55,0.15 h -0.52 l -106.98,0.99 -175.61,1.63 h -0.15 l -44.65,0.42 -0.48,0.01 -198.4,1.82 v -15 l 202.51,-1.33 h 0.48 l 40.99,-0.28 h 0.19 l 283.08,-1.87 h 0.29 l 0.17,-0.01 h 0.47 l 4.79,-0.03 h 1.46 l 74.49,-0.5 4.4,-0.02 0.98,-0.01 z"
       opacity="0.1" /><circle
       id="Ellipse_111"
       data-name="Ellipse 111"
       cx="51.330002"
       cy="51.330002"
       r="51.330002"
       transform="translate(435.93,246.82)"
       fill="#fbbebe" /><path
       id="Path_317"
       data-name="Path 317"
       d="m 617.94,550.07 c 0,0 -99.5,12 -90,0 3.44,-4.34 4.39,-17.2 4.2,-31.85 -0.06,-4.45 -0.22,-9.06 -0.45,-13.65 -1.1,-22 -3.75,-43.5 -3.75,-43.5 0,0 87,-41 77,-8.5 -4,13.13 -2.69,31.57 0.35,48.88 0.89,5.05 1.92,10 3,14.7 a 344.66,344.66 0 0 0 9.65,33.92 z"
       transform="translate(-79.34,-172.91)"
       fill="#fbbebe" /><path
       id="Path_318"
       data-name="Path 318"
       d="m 585.47,546 c 11.51,-2.13 23.7,-6 34.53,-1.54 2.85,1.17 5.47,2.88 8.39,3.86 2.92,0.98 6.12,1.22 9.16,1.91 10.68,2.42 19.34,10.55 24.9,20 5.56,9.45 8.44,20.14 11.26,30.72 l 6.9,25.83 c 6,22.45 12,45.09 13.39,68.3 a 2437.506,2437.506 0 0 1 -250.84,1.43 c 5.44,-10.34 11,-21.31 10.54,-33 -0.46,-11.69 -7.19,-23.22 -4.76,-34.74 1.55,-7.34 6.57,-13.39 9.64,-20.22 8.75,-19.52 1.94,-45.79 17.32,-60.65 6.92,-6.68 17,-9.21 26.63,-8.89 12.28,0.41 24.85,4.24 37,6.11 15.56,2.36 30.26,3.76 45.94,0.88 z"
       transform="translate(-79.34,-172.91)"
       fill="#ff6584"
       style="fill:#c87137" /><path
       id="Path_319"
       data-name="Path 319"
       d="m 716.37,657.17 -0.1,1.43 v 0.1 l -0.17,2.3 -1.33,18.51 -1.61,22.3 -0.46,6.28 -1,13.44 v 0.17 l -107,1 -175.59,1.9 v 0.84 h -0.14 v -1.12 l 0.45,-14.36 0.86,-28.06 0.74,-23.79 0.07,-2.37 a 10.53,10.53 0 0 1 11.42,-10.17 c 4.72,0.4 10.85,0.89 18.18,1.41 l 3,0.22 c 42.33,2.94 120.56,6.74 199.5,2 1.66,-0.09 3.33,-0.19 5,-0.31 12.24,-0.77 24.47,-1.76 36.58,-3 a 10.53,10.53 0 0 1 11.6,11.23 z"
       transform="translate(-79.34,-172.91)"
       opacity="0.1" /><path
       id="Path_320"
       data-name="Path 320"
       d="m 429.08,725.44 v -0.84 l 175.62,-1.91 107,-1 h 0.3 v -0.17 l 1,-13.44 0.43,-6 1.64,-22.61 1.29,-17.9 v -0.44 a 10.617,10.617 0 0 0 -0.11,-2.47 0.3,0.3 0 0 0 0,-0.1 10.391,10.391 0 0 0 -2,-4.64 10.54,10.54 0 0 0 -9.42,-4 c -12.11,1.24 -24.34,2.23 -36.58,3 -1.67,0.12 -3.34,0.22 -5,0.31 -78.94,4.69 -157.17,0.89 -199.5,-2 l -3,-0.22 c -7.33,-0.52 -13.46,-1 -18.18,-1.41 a 10.54,10.54 0 0 0 -11.24,8.53 11,11 0 0 0 -0.18,1.64 l -0.68,22.16 -0.93,28.07 -0.44,14.36 v 1.12 z"
       transform="translate(-79.34,-172.91)"
       fill="#3f3d56" /><path
       id="Path_321"
       data-name="Path 321"
       d="m 716.67,664.18 -1.23,15.33 -1.83,22.85 -0.46,5.72 -1,12.81 -0.06,0.64 v 0.17 0 l -0.15,1.48 0.11,-1.48 h -0.29 l -107,1 -175.65,1.9 v -0.28 l 0.49,-14.36 1,-28.06 0.64,-18.65 a 6.36,6.36 0 0 1 3.06,-5.25 6.25,6.25 0 0 1 3.78,-0.9 c 2.1,0.17 4.68,0.37 7.69,0.59 4.89,0.36 10.92,0.78 17.94,1.22 13,0.82 29.31,1.7 48,2.42 52,2 122.2,2.67 188.88,-3.17 3,-0.26 6.1,-0.55 9.13,-0.84 a 6.26,6.26 0 0 1 3.48,0.66 5.159,5.159 0 0 1 0.86,0.54 6.14,6.14 0 0 1 2,2.46 3.564,3.564 0 0 1 0.25,0.61 6.279,6.279 0 0 1 0.36,2.59 z"
       transform="translate(-79.34,-172.91)"
       opacity="0.1" /><path
       id="Path_322"
       data-name="Path 322"
       d="m 377.44,677.87 v 3.19 a 6.13,6.13 0 0 1 -3.5,5.54 l -40.1,0.77 a 6.12,6.12 0 0 1 -3.57,-5.57 v -3 z"
       transform="translate(-79.34,-172.91)"
       opacity="0.1" /><path
       id="Path_323"
       data-name="Path 323"
       d="m 298.59,515.57 -52.25,1 v -8.67 l 52.25,-1 z"
       fill="#3f3d56" /><path
       id="Path_324"
       data-name="Path 324"
       d="m 298.59,515.57 -52.25,1 v -8.67 l 52.25,-1 z"
       opacity="0.1" /><path
       id="Path_325"
       data-name="Path 325"
       d="m 300.59,515.57 -52.25,1 v -8.67 l 52.25,-1 z"
       fill="#3f3d56" /><path
       id="Path_326"
       data-name="Path 326"
       d="m 758.56,679.87 v 3.19 a 6.13,6.13 0 0 0 3.5,5.54 l 40.1,0.77 a 6.12,6.12 0 0 0 3.57,-5.57 v -3 z"
       transform="translate(-79.34,-172.91)"
       opacity="0.1" /><path
       id="Path_327"
       data-name="Path 327"
       d="m 678.72,517.57 52.25,1 v -8.67 l -52.25,-1 z"
       opacity="0.1" /><path
       id="Path_328"
       data-name="Path 328"
       d="m 676.72,517.57 52.25,1 v -8.67 l -52.25,-1 z"
       fill="#3f3d56" /><path
       id="Path_329"
       data-name="Path 329"
       d="m 534.13,486.79 c 0.08,7 -3.16,13.6 -5.91,20.07 a 163.491,163.491 0 0 0 -12.66,74.71 c 0.73,11 2.58,22 0.73,32.9 -1.85,10.9 -8.43,21.77 -19,24.9 17.53,10.45 41.26,9.35 57.76,-2.66 8.79,-6.4 15.34,-15.33 21.75,-24.11 A 97.86,97.86 0 0 1 563.49,657.35 103.43,103.43 0 0 0 637,616.53 c 4.31,-5.81 8.06,-12.19 9.72,-19.23 3.09,-13 -1.22,-26.51 -4.51,-39.5 a 266.055,266.055 0 0 1 -6.17,-33 c -0.43,-3.56 -0.78,-7.22 0.1,-10.7 1,-4.07 3.67,-7.51 5.64,-11.22 5.6,-10.54 5.73,-23.3 2.86,-34.88 -2.87,-11.58 -8.49,-22.26 -14.06,-32.81 -4.46,-8.46 -9.3,-17.31 -17.46,-22.28 -5.1,-3.1 -11,-4.39 -16.88,-5.64 l -25.37,-5.43 c -5.55,-1.19 -11.26,-2.38 -16.87,-1.51 -9.47,1.48 -16.14,8.32 -22,15.34 -4.59,5.46 -15.81,15.71 -16.6,22.86 -0.72,6.59 5.1,17.63 6.09,24.58 1.3,9 2.22,6 7.3,11.52 3.21,3.42 5.28,7.37 5.34,12.16 z"
       transform="translate(-79.34,-172.91)"
       fill="#3f3d56" /></g><g
     id="g5191"
     transform="matrix(0.15957516,0,0,0.15957516,638.30282,339.49265)"><rect
       width="630"
       height="630"
       fill="#f7df1e"
       id="rect5179"
       x="0"
       y="0" /><path
       d="m 423.2,492.19 c 12.69,20.72 29.2,35.95 58.4,35.95 24.53,0 40.2,-12.26 40.2,-29.2 0,-20.3 -16.1,-27.49 -43.1,-39.3 l -14.8,-6.35 c -42.72,-18.2 -71.1,-41 -71.1,-89.2 0,-44.4 33.83,-78.2 86.7,-78.2 37.64,0 64.7,13.1 84.2,47.4 l -46.1,29.6 c -10.15,-18.2 -21.1,-25.37 -38.1,-25.37 -17.34,0 -28.33,11 -28.33,25.37 0,17.76 11,24.95 36.4,35.95 l 14.8,6.34 c 50.3,21.57 78.7,43.56 78.7,93 0,53.3 -41.87,82.5 -98.1,82.5 -54.98,0 -90.5,-26.2 -107.88,-60.54 z m -209.13,5.13 c 9.3,16.5 17.76,30.45 38.1,30.45 19.45,0 31.72,-7.61 31.72,-37.2 v -201.3 h 59.2 v 202.1 c 0,61.3 -35.94,89.2 -88.4,89.2 -47.4,0 -74.85,-24.53 -88.81,-54.075 z"
       id="path5181" /></g><g
     style="fill:none"
     id="g6013"
     transform="matrix(0.19635224,0,0,0.19635224,232.82283,339.49265)"><rect
       style="fill:#3178c6;fill-opacity:1;stroke-width:1.51181;stroke-linecap:round;stroke-linejoin:round"
       id="rect5374"
       width="512"
       height="512"
       x="0"
       y="0" /><rect
       fill="#3178c6"
       height="512"
       rx="50"
       width="512"
       id="rect5193"
       x="0"
       y="0" /><path
       clip-rule="evenodd"
       d="m 316.939,407.424 v 50.061 c 8.138,4.172 17.763,7.3 28.875,9.386 11.112,2.086 22.823,3.129 35.135,3.129 11.999,0 23.397,-1.147 34.196,-3.442 10.799,-2.294 20.268,-6.075 28.406,-11.342 8.138,-5.266 14.581,-12.15 19.328,-20.65 4.747,-8.5 7.121,-19.007 7.121,-31.522 0,-9.074 -1.356,-17.026 -4.069,-23.857 -2.713,-6.831 -6.625,-12.906 -11.738,-18.225 -5.112,-5.319 -11.242,-10.091 -18.389,-14.315 -7.147,-4.224 -15.207,-8.213 -24.18,-11.967 -6.573,-2.712 -12.468,-5.345 -17.685,-7.9 -5.217,-2.556 -9.651,-5.163 -13.303,-7.822 -3.652,-2.66 -6.469,-5.476 -8.451,-8.448 -1.982,-2.973 -2.974,-6.336 -2.974,-10.091 0,-3.441 0.887,-6.544 2.661,-9.308 1.774,-2.764 4.278,-5.136 7.512,-7.118 3.235,-1.981 7.199,-3.52 11.894,-4.615 4.696,-1.095 9.912,-1.642 15.651,-1.642 4.173,0 8.581,0.313 13.224,0.938 4.643,0.626 9.312,1.591 14.008,2.894 4.695,1.304 9.259,2.947 13.694,4.928 4.434,1.982 8.529,4.276 12.285,6.884 v -46.776 c -7.616,-2.92 -15.937,-5.084 -24.962,-6.492 -9.025,-1.408 -19.381,-2.112 -31.066,-2.112 -11.895,0 -23.163,1.278 -33.805,3.833 -10.642,2.555 -20.006,6.544 -28.093,11.967 -8.086,5.424 -14.476,12.333 -19.171,20.729 -4.695,8.395 -7.043,18.433 -7.043,30.114 0,14.914 4.304,27.638 12.912,38.172 8.607,10.533 21.675,19.45 39.204,26.751 6.886,2.816 13.303,5.579 19.25,8.291 5.947,2.712 11.086,5.528 15.415,8.448 4.33,2.92 7.747,6.101 10.252,9.543 2.504,3.441 3.756,7.352 3.756,11.733 0,3.233 -0.783,6.231 -2.348,8.995 -1.565,2.764 -3.939,5.162 -7.121,7.196 -3.182,2.034 -7.147,3.624 -11.894,4.771 -4.748,1.148 -10.303,1.721 -16.668,1.721 -10.851,0 -21.597,-1.903 -32.24,-5.71 -10.642,-3.806 -20.502,-9.516 -29.579,-17.13 z M 232.78,284.082 H 297 V 243 H 118 v 41.082 h 63.906 V 467 h 50.874 z"
       fill="#ffffff"
       fill-rule="evenodd"
       id="path5197" /></g></svg>
