<svg xmlns="http://www.w3.org/2000/svg" width="16" height="16">
   <path d="M12.195 2.17a1.144 1.144 0 00-1.144 1.144 1.144 1.144 0 001.144 1.143 1.144 1.144 0 001.145-1.143 1.144 1.144 0 00-1.145-1.144zM3.297 3.516a.273.273 0 100 .546h1.82a.273.273 0 100-.546zM8.08 3.67a.5.5 0 00-.318.117L5.975 5.295c-.51.43.134 1.195.644.766l1.606-1.356 1.254.242c.058.015.048.058.029.104l-3.11 4.396-2.675-.15c-.685-.06-.744.98-.057.998l2.953.166a.5.5 0 00.436-.209l1-1.416 1.998 1.435-1.002 1.932c-.308.593.581 1.054.888.461l1.2-2.314a.5.5 0 00-.153-.637l-1.765-1.31 1.457-2.151c.068-.104.117-.046.146.014l.66 1.093a.5.5 0 00.446.262l2.19-.025c.671-.003.66-1.013-.013-1l-1.886.021-.96-1.77c-.273-.373-.723-.57-1.107-.786L8.18 3.678a.5.5 0 00-.1-.008zM1.453 4.863a.273.273 0 100 .547h3.352a.273.273 0 100-.547zM2.203 6.21a.273.273 0 100 .548h1.82a.273.273 0 100-.547z" fill="#c5c5c5" />
</svg>