<?xml version="1.0" encoding="UTF-8" standalone="no"?>
<svg
   height="16"
   width="16"
   version="1.1"
   id="svg6"
   sodipodi:docname="find-quick-changed.svg"
   inkscape:version="1.2.2 (732a01da63, 2022-12-09)"
   xmlns:inkscape="http://www.inkscape.org/namespaces/inkscape"
   xmlns:sodipodi="http://sodipodi.sourceforge.net/DTD/sodipodi-0.dtd"
   xmlns="http://www.w3.org/2000/svg"
   xmlns:svg="http://www.w3.org/2000/svg">
  <defs
     id="defs10" />
  <sodipodi:namedview
     id="namedview8"
     pagecolor="#ffffff"
     bordercolor="#000000"
     borderopacity="0.25"
     inkscape:showpageshadow="2"
     inkscape:pageopacity="0.0"
     inkscape:pagecheckerboard="0"
     inkscape:deskcolor="#d1d1d1"
     showgrid="false"
     inkscape:zoom="90.509668"
     inkscape:cx="6.4136795"
     inkscape:cy="6.607029"
     inkscape:window-width="3840"
     inkscape:window-height="2066"
     inkscape:window-x="-11"
     inkscape:window-y="-11"
     inkscape:window-maximized="1"
     inkscape:current-layer="svg6" />
  <path
     id="path4"
     d="M 8.709,6.446 V 7.744 C 8.2943333,7.358 7.8513333,7.0696667 7.38,6.879 6.9133333,6.6876667 6.4156667,6.592 5.887,6.592 4.847,6.592 4.0506667,6.911 3.498,7.549 2.946,8.1823333 2.67,9.1006667 2.67,10.304 c 0,1.198 0.276,2.116 0.828,2.754 0.5533333,0.633333 1.35,0.95 2.39,0.95 0.528,0 1.0253333,-0.09533 1.492,-0.286 0.4713333,-0.190667 0.9143333,-0.479 1.329,-0.865 v 1.286 c -0.4306667,0.292667 -0.8876667,0.512 -1.371,0.658 -0.48,0.146667 -0.988,0.22 -1.524,0.22 -1.3773333,0 -2.462,-0.420667 -3.254,-1.262 C 1.768,12.913667 1.372,11.762 1.372,10.304 1.372,8.8413333 1.768,7.6893333 2.56,6.848 3.352,6.0033333 4.4366667,5.581 5.814,5.581 c 0.5446667,0 1.0566667,0.073333 1.536,0.22 0.4833333,0.1413333 0.9363333,0.3563333 1.359,0.645 z M 7.078,4.719 C 7.268,4.757 7.458,4.789 7.62,4.8365 7.782,4.884 7.912,4.949 8.047,5 8.1284821,3.3622476 9.4792228,2.0757023 11.119,2.074 c 1.699704,5.519e-4 3.077448,1.3782962 3.078,3.078 5.52e-4,1.7004848 -1.377515,3.0794478 -3.078,3.08 C 10.628385,8.2316359 10.14496,8.1140367 9.709,7.889 V 8.96 c 0.45027,0.1692297 0.926986,0.2572596 1.408,0.26 2.247866,0.00111 4.070553,-1.8211338 4.07,-4.069 C 15.1859,2.9050867 13.607982,1.0739512 11.324417,1.0814239 9.0408513,1.0888967 7.3000052,2.654753 7.078,4.719 Z m 0.193,3.227 -3.476,3.476 c 0.044,0.183 0.099,0.347 0.164,0.492 L 4.338,12.293 8.094,8.537 8.027,8.477 C 7.8000068,8.2665552 7.6590059,8.1426159 7.3842812,8 Z"
     style="fill:#c5c5c5;fill-opacity:1"
     sodipodi:nodetypes="cccscscsccccscscsccccccsccccccccccccccc" />
</svg>
