<?xml version="1.0" encoding="UTF-8" standalone="no"?>
<svg
   width="16"
   height="16"
   version="1.1"
   id="svg1135"
   xmlns="http://www.w3.org/2000/svg"
   xmlns:svg="http://www.w3.org/2000/svg">
  <defs
     id="defs1139" />
  <path
     id="path1133"
     style="fill:#c5c5c5;fill-opacity:1"
     d="M 10.789062,7.5703125 V 8.859375 L 9.8789062,7.9492188 9.171875,8.65625 10.082031,9.5664062 H 8.7949219 v 0.9999998 h 1.2890621 l -0.912109,0.91211 0.7070312,0.707031 0.9101558,-0.910156 V 12.5625 h 1 v -1.289062 l 0.91211,0.912109 0.707031,-0.707031 -0.912109,-0.91211 h 1.289062 V 9.5664062 H 12.498047 L 13.408203,8.65625 12.701172,7.9492188 11.789062,8.8613281 V 7.5703125 Z M 5.527,0.516 C 4.873,0.516 4.25,0.623 3.658,0.834 A 4.484,4.484 0 0 0 2.104,1.784 C 1.659,2.198 1.304,2.722 1.039,3.355 0.774,3.99 0.641,4.728 0.641,5.572 c 0,0.876 0.133,1.634 0.398,2.276 0.273,0.633 0.64,1.154 1.1,1.56 0.46,0.415 0.995,0.719 1.611,0.914 a 6.23,6.23 0 0 0 1.965,0.305 7.04,7.04 0 0 0 1.11,-0.082 C 7.175,10.49 7.416,10.439 7.549,10.393 L 7.434,9.525 A 4.638,4.638 0 0 1 6.848,9.655 6.416,6.416 0 0 1 5.715,9.736 c -0.592,0 -1.138,-0.09 -1.637,-0.27 A 3.586,3.586 0 0 1 2.793,8.691 3.675,3.675 0 0 1 1.951,7.391 C 1.749,6.867 1.646,6.261 1.646,5.572 1.646,4.915 1.741,4.329 1.928,3.812 2.123,3.296 2.391,2.862 2.734,2.51 A 3.39,3.39 0 0 1 3.961,1.69 4.08,4.08 0 0 1 5.527,1.396 c 0.57,0 1.08,0.094 1.532,0.282 0.46,0.187 0.85,0.445 1.17,0.773 0.319,0.329 0.564,0.713 0.736,1.15 0.171,0.43 0.256,0.89 0.256,1.383 0,0.298 -0.024,0.592 -0.07,0.881 C 9.104,6.147 9.031,6.4 8.93,6.627 8.836,6.854 8.71,7.039 8.555,7.18 A 0.736,0.736 0 0 1 8.029,7.39 0.423,0.423 0 0 1 7.689,7.238 C 7.604,7.137 7.561,6.959 7.561,6.709 V 3.121 A 5.599,5.599 0 0 0 6.789,2.934 5.787,5.787 0 0 0 5.703,2.838 c -0.42,0 -0.8,0.072 -1.135,0.213 C 4.241,3.191 3.96,3.386 3.727,3.637 3.501,3.879 3.33,4.167 3.213,4.504 A 3.131,3.131 0 0 0 3.037,5.561 c 0,0.445 0.063,0.835 0.188,1.171 0.124,0.337 0.299,0.623 0.525,0.858 0.226,0.227 0.491,0.398 0.795,0.515 0.312,0.118 0.655,0.176 1.03,0.176 0.24,0 0.482,-0.03 0.724,-0.094 0.241,-0.07 0.448,-0.152 0.619,-0.246 0.11,0.118 0.246,0.211 0.41,0.282 0.164,0.07 0.37,0.105 0.62,0.105 0.311,0 0.607,-0.07 0.888,-0.21 C 9.116,7.976 9.358,7.77 9.561,7.496 9.763,7.215 9.922,6.87 10.039,6.463 10.164,6.056 10.227,5.588 10.227,5.057 10.227,4.353 10.103,3.723 9.854,3.168 A 4.287,4.287 0 0 0 7.34,0.834 5.17,5.17 0 0 0 5.527,0.516 Z M 8.686,1 C 8.851,1.118 9.022,1.228 9.172,1.367 9.382,1.558 9.567,1.773 9.738,2 h 0.545 v 0.912 l 0.026,0.05 v 0.003 c 0.28,0.627 0.418,1.33 0.418,2.092 0,0.334 -0.033,0.645 -0.08,0.943 h 3.636 v 7 h -9 v -1.904 a 6.79,6.79 0 0 1 -1,-0.133 V 13.5 l 0.5,0.5 h 10 l 0.5,-0.5 V 5 l -0.1,-0.4 -3.4,-3.5 -0.3,-0.1 H 8.685 Z m 2.597,1 2.9,3 h -2.9 z M 5.785,3.742 c 0.164,0 0.311,0.008 0.444,0.024 0.132,0.015 0.222,0.03 0.269,0.046 v 2.756 c 0,0.094 0.004,0.192 0.012,0.293 0.008,0.102 0.023,0.205 0.047,0.307 A 1.85,1.85 0 0 1 6.1,7.332 2.602,2.602 0 0 1 5.61,7.379 C 5.157,7.379 4.798,7.213 4.533,6.885 4.268,6.556 4.137,6.115 4.137,5.561 4.137,5.037 4.272,4.601 4.545,4.258 4.818,3.914 5.232,3.742 5.785,3.742 Z" />
</svg>
