<svg xmlns="http://www.w3.org/2000/svg" viewBox="0 0 7.408 7.408" height="28" width="28">
   <path d="M1.858.366a.478.478 0 00-.472.485v.46l.023-.04c.107-.128.187-.222.347-.263a1.886 1.94 0 01.362-.047c.127-.003.3.039.346.077a1.078 1.11 0 01.33.447c.096.22.076.7-.037.804-.077.07-.426-.028-.517-.077-.146-.08-.296-.23-.52-.331-.072-.033-.234-.067-.334-.116v2.94l1.21-.118a.17.175 0 11.032.348l-1.242.12v.261l1.193-.239a.17.175 0 01.065.345l-1.258.25v.375a.824.824 0 01.072-.107c.162-.196.489-.212.699-.247.112-.018.233-.018.345-.037.487-.077.447-.09.632-.288.057-.063.102-.149.18-.18a1.03 1.06 0 01.34-.06c-.003-.028-.003-.056-.015-.08-.021-.041-.055-.076-.085-.113-.24-.307-.345-.459-.56-.574-.133-.07-.404-.075-.428-.142-.062-.18-.016-.302.22-.312.146-.008.292.01.438.024a9.159 9.425 0 001.347-.004c.162-.01.321-.051.483-.051a.486.5 0 01.254.048c.033.02.092.194-.047.227-.373.086-.862.384-1.216.854-.016.02-.026.098-.034.127a.93.957 0 01.56.278c.074.071.134.188.234.199.57.079.893.132 1.353.386.139.158.1.282-.004.388-.092.095-.007.28-.092.358-.108.097-.294-.007-.364-.089-.09-.107-.07-.161-.126-.292-.072-.167-.165-.336-.524-.406a5.536 5.536 0 00-1.233-.11c-.255.001-.483 0-.785.066-.368.081-.613.042-.738.108-.14.074-.212.205-.305.295-.2.193-.212.353-.38.433-.04.019-.135-.008-.198-.046a.47.47 0 00.449.342H5.78a.478.478 0 00.472-.485V5.41H5.03a.17.175 0 010-.35h1.222v-.287L5.054 4.9a.17.175 0 01-.186-.156.17.175 0 01.152-.192l1.232-.129V1.88a.37.38 0 01-.175.157c-.293.148-.663.354-.893.4-.15.03-.344-.156-.352-.281-.012-.198-.032-.358.046-.567.055-.149.229-.435.397-.48.098-.026.194-.044.284-.047.275-.011.49.119.65.448a.806.83 0 01.043.114V.851A.478.478 0 005.78.366zM1.386 5.32l-.75.146c-.24.03-.17.392.063.333l.687-.133zm4.866-.256v.34h.522c.227 0 .227-.34 0-.34zM1.386 4.71l-.768.072c-.224.023-.192.358.032.34l.736-.07zm5.386-.332l-.02.001-.5.05v.342l.533-.054c.218-.016.205-.339-.013-.34z" fill="#fff"/>
</svg>