<?xml version="1.0" encoding="UTF-8" standalone="no"?>
<svg
   width="1088"
   height="687.962"
   viewBox="0 0 1088 687.962"
   version="1.1"
   id="svg162"
   sodipodi:docname="aciclic-graph.svg"
   xml:space="preserve"
   inkscape:version="1.2.2 (732a01da63, 2022-12-09)"
   xmlns:inkscape="http://www.inkscape.org/namespaces/inkscape"
   xmlns:sodipodi="http://sodipodi.sourceforge.net/DTD/sodipodi-0.dtd"
   xmlns="http://www.w3.org/2000/svg"
   xmlns:svg="http://www.w3.org/2000/svg"
   xmlns:rdf="http://www.w3.org/1999/02/22-rdf-syntax-ns#"
   xmlns:cc="http://creativecommons.org/ns#"
   xmlns:dc="http://purl.org/dc/elements/1.1/"><defs
     id="defs166" /><sodipodi:namedview
     id="namedview164"
     pagecolor="#ffffff"
     bordercolor="#000000"
     borderopacity="0.25"
     inkscape:showpageshadow="2"
     inkscape:pageopacity="0.0"
     inkscape:pagecheckerboard="0"
     inkscape:deskcolor="#d1d1d1"
     showgrid="false"
     inkscape:zoom="0.08628217"
     inkscape:cx="1413.9654"
     inkscape:cy="3899.9946"
     inkscape:window-width="1649"
     inkscape:window-height="1259"
     inkscape:window-x="601"
     inkscape:window-y="625"
     inkscape:window-maximized="0"
     inkscape:current-layer="svg162" /><title
     id="title2">Easy to Use</title><path
     id="Path_83"
     data-name="Path 83"
     d="m 961.81,454.442 c -5.27,45.15 -16.22,81.4 -31.25,110.31 -20,38.52 -54.21,54.04 -84.77,70.28 a 193.275,193.275 0 0 1 -27.46,11.94 c -55.61,19.3 -117.85,14.18 -166.74,3.99 A 657.282,657.282 0 0 0 547.5,637.802 q -14.97,-0.675 -29.97,-0.67 c -15.42,0.02 -293.07,5.29 -360.67,-131.57 -16.69,-33.76 -28.13,-75 -32.24,-125.27 -11.63,-142.12 52.29,-235.46 134.74,-296.47 155.97,-115.41 369.76,-110.57 523.43,7.88 102.36,78.9 198.2,198.31 179.02,362.74 z"
     fill="#3f3d56"
     style="fill:#f2f2f2;fill-opacity:1" /><path
     id="Path_91"
     data-name="Path 91"
     d="m 1088,613.962 c 0,16.569 -243.557,74 -544,74 -300.443,0 -544,-57.431 -544,-74 0,-16.569 243.557,14 544,14 300.443,0 544,-30.568 544,-14 z"
     fill="#3f3d56"
     style="fill:#3c2e2e;fill-opacity:1" /><path
     id="Path_92"
     data-name="Path 92"
     d="m 1088,613.962 c 0,16.569 -243.557,74 -544,74 -300.443,0 -544,-57.431 -544,-74 0,-16.569 243.557,14 544,14 300.443,0 544,-30.568 544,-14 z"
     opacity="0.1"
     style="fill:#552200" /><ellipse
     id="Ellipse_18"
     data-name="Ellipse 18"
     cx="544"
     cy="613.96198"
     rx="544"
     ry="30"
     fill="#3f3d56"
     style="fill:#502d16" /><metadata
     id="metadata560"><rdf:RDF><cc:Work
         rdf:about=""><dc:title>Easy to Use</dc:title></cc:Work></rdf:RDF></metadata><g
     id="g1340"
     transform="matrix(0.08196567,0,0,0.08196567,386.63155,175.43316)"><path
       id="rect732"
       style="fill:#4d4d4d;fill-opacity:1;stroke:#000000;stroke-width:1.00782;stroke-linecap:round;stroke-linejoin:round"
       d="m 366.43215,-759.65614 c 0,-9.87777 -3.78538,-19.75456 -11.35424,-27.32341 l -2.56067,-2.56067 c -15.13769,-15.1377 -39.51091,-15.1377 -54.64861,0 L 186.6482,-678.32159 75.427769,-789.54022 c -15.1377,-15.1377 -39.51092,-15.1377 -54.64861,0 l -2.56068,2.56067 c -15.1376905,15.13769 -15.1376905,39.51091 0,54.64861 l 138.543841,138.54384 2.56067,2.56246 c 15.1377,15.13771 39.51271,15.13771 54.65042,10e-6 l 2.56066,-2.56247 138.54384,-138.54384 c 7.56885,-7.56885 11.35423,-17.44744 11.35424,-27.3252 z" /><g
       style="fill:none"
       id="g359"
       transform="matrix(53.125991,0,0,53.125991,697.0277,-1137.1696)"><path
         d="m 7.074,4.5 v 8 h 1 v -8 z"
         fill="#e54a16"
         id="path341" /><path
         d="m 0,4 v 9 H 15.15 V 4 Z m 1,1 h 13.15 v 7 H 1 Z"
         fill="#4d4d4d"
         id="path343" /><path
         d="m 9.075,6 v 5 H 13.15 V 6 Z m 1,1 h 2.076 v 3 h -2.076 z"
         fill="#42a5f5"
         id="path345" /><path
         d="m 3.56,5.65 v 2 h 1 V 7.371 A 1.5,1.5 0 1 1 2.29,9.275 L 1.367,9.67 A 2.5,2.5 0 0 0 6.074,8.5 2.5,2.5 0 0 0 5.25,6.65 h 0.31 v -1 z"
         fill="#e54a16"
         id="path347" /></g></g><g
     id="g3847"
     transform="matrix(0.08196567,0,0,0.08196567,456.07977,242.75107)"><path
       id="path3835"
       style="fill:#999999;fill-opacity:1;stroke:#000000;stroke-width:1.00782;stroke-linecap:round;stroke-linejoin:round"
       d="m 117.37705,-870.1638 c -9.87777,0 -19.754565,3.78538 -27.323417,11.35424 l -2.560668,2.56067 c -15.137698,15.13769 -15.137698,39.51091 0,54.64861 L 198.7116,-690.37985 87.492965,-579.15942 c -15.137698,15.1377 -15.137698,39.51092 0,54.64861 l 2.560674,2.56068 c 15.137691,15.13769 39.510911,15.13769 54.648611,0 l 138.54384,-138.54384 2.56246,-2.56067 c 15.13771,-15.1377 15.13771,-39.51271 10e-6,-54.65042 l -2.56247,-2.56066 -138.54384,-138.54384 c -7.56885,-7.56885 -17.44744,-11.35423 -27.3252,-11.35424 z" /><g
       style="fill:none"
       id="g3845"
       transform="matrix(53.125991,0,0,53.125991,697.0277,-1137.1696)"><path
         d="m 7.074,4.5 v 8 h 1 v -8 z"
         fill="#e54a16"
         id="path3837" /><path
         d="m 0,4 v 9 H 15.15 V 4 Z m 1,1 h 13.15 v 7 H 1 Z"
         fill="#4d4d4d"
         id="path3839" /><path
         d="m 9.075,6 v 5 H 13.15 V 6 Z m 1,1 h 2.076 v 3 h -2.076 z"
         fill="#42a5f5"
         id="path3841" /><path
         d="m 3.56,5.65 v 2 h 1 V 7.371 A 1.5,1.5 0 1 1 2.29,9.275 L 1.367,9.67 A 2.5,2.5 0 0 0 6.074,8.5 2.5,2.5 0 0 0 5.25,6.65 h 0.31 v -1 z"
         fill="#e54a16"
         id="path3843" /></g></g><g
     id="g3894"
     transform="matrix(0.08196567,0,0,0.08196567,456.07977,312.24623)"><path
       id="path3882"
       style="fill:#999999;fill-opacity:1;stroke:#000000;stroke-width:1.00782;stroke-linecap:round;stroke-linejoin:round"
       d="m 117.37705,-870.1638 c -9.87777,0 -19.754565,3.78538 -27.323417,11.35424 l -2.560668,2.56067 c -15.137698,15.13769 -15.137698,39.51091 0,54.64861 L 198.7116,-690.37985 87.492965,-579.15942 c -15.137698,15.1377 -15.137698,39.51092 0,54.64861 l 2.560674,2.56068 c 15.137691,15.13769 39.510911,15.13769 54.648611,0 l 138.54384,-138.54384 2.56246,-2.56067 c 15.13771,-15.1377 15.13771,-39.51271 10e-6,-54.65042 l -2.56247,-2.56066 -138.54384,-138.54384 c -7.56885,-7.56885 -17.44744,-11.35423 -27.3252,-11.35424 z" /><g
       style="fill:none"
       id="g3892"
       transform="matrix(53.125991,0,0,53.125991,697.0277,-1137.1696)"><path
         d="m 7.074,4.5 v 8 h 1 v -8 z"
         fill="#e54a16"
         id="path3884" /><path
         d="m 0,4 v 9 H 15.15 V 4 Z m 1,1 h 13.15 v 7 H 1 Z"
         fill="#4d4d4d"
         id="path3886" /><path
         d="m 9.075,6 v 5 H 13.15 V 6 Z m 1,1 h 2.076 v 3 h -2.076 z"
         fill="#42a5f5"
         id="path3888" /><path
         d="m 3.56,5.65 v 2 h 1 V 7.371 A 1.5,1.5 0 1 1 2.29,9.275 L 1.367,9.67 A 2.5,2.5 0 0 0 6.074,8.5 2.5,2.5 0 0 0 5.25,6.65 h 0.31 v -1 z"
         fill="#e54a16"
         id="path3890" /></g></g><g
     id="g3936"
     transform="matrix(0.08196567,0,0,0.08196567,459.14067,383.91865)"><path
       id="path3924"
       style="fill:#4d4d4d;fill-opacity:1;stroke:#000000;stroke-width:1.00782;stroke-linecap:round;stroke-linejoin:round"
       d="m 366.43215,-759.65614 c 0,-9.87777 -3.78538,-19.75456 -11.35424,-27.32341 l -2.56067,-2.56067 c -15.13769,-15.1377 -39.51091,-15.1377 -54.64861,0 L 186.6482,-678.32159 75.427769,-789.54022 c -15.1377,-15.1377 -39.51092,-15.1377 -54.64861,0 l -2.56068,2.56067 c -15.1376905,15.13769 -15.1376905,39.51091 0,54.64861 l 138.543841,138.54384 2.56067,2.56246 c 15.1377,15.13771 39.51271,15.13771 54.65042,10e-6 l 2.56066,-2.56247 138.54384,-138.54384 c 7.56885,-7.56885 11.35423,-17.44744 11.35424,-27.3252 z" /><g
       style="fill:none"
       id="g3934"
       transform="matrix(53.125991,0,0,53.125991,697.0277,-1137.1696)"><path
         d="m 7.074,4.5 v 8 h 1 v -8 z"
         fill="#e54a16"
         id="path3926" /><path
         d="m 0,4 v 9 H 15.15 V 4 Z m 1,1 h 13.15 v 7 H 1 Z"
         fill="#4d4d4d"
         id="path3928" /><path
         d="m 9.075,6 v 5 H 13.15 V 6 Z m 1,1 h 2.076 v 3 h -2.076 z"
         fill="#42a5f5"
         id="path3930" /><path
         d="m 3.56,5.65 v 2 h 1 V 7.371 A 1.5,1.5 0 1 1 2.29,9.275 L 1.367,9.67 A 2.5,2.5 0 0 0 6.074,8.5 2.5,2.5 0 0 0 5.25,6.65 h 0.31 v -1 z"
         fill="#e54a16"
         id="path3932" /></g></g><g
     id="g3950"
     transform="matrix(0.08196567,0,0,0.08196567,528.58889,451.23656)"><path
       id="path3938"
       style="fill:#999999;fill-opacity:1;stroke:#000000;stroke-width:1.00782;stroke-linecap:round;stroke-linejoin:round"
       d="m 117.37705,-870.1638 c -9.87777,0 -19.754565,3.78538 -27.323417,11.35424 l -2.560668,2.56067 c -15.137698,15.13769 -15.137698,39.51091 0,54.64861 L 198.7116,-690.37985 87.492965,-579.15942 c -15.137698,15.1377 -15.137698,39.51092 0,54.64861 l 2.560674,2.56068 c 15.137691,15.13769 39.510911,15.13769 54.648611,0 l 138.54384,-138.54384 2.56246,-2.56067 c 15.13771,-15.1377 15.13771,-39.51271 10e-6,-54.65042 l -2.56247,-2.56066 -138.54384,-138.54384 c -7.56885,-7.56885 -17.44744,-11.35423 -27.3252,-11.35424 z" /><g
       style="fill:none"
       id="g3948"
       transform="matrix(53.125991,0,0,53.125991,697.0277,-1137.1696)"><path
         d="m 7.074,4.5 v 8 h 1 v -8 z"
         fill="#e54a16"
         id="path3940" /><path
         d="m 0,4 v 9 H 15.15 V 4 Z m 1,1 h 13.15 v 7 H 1 Z"
         fill="#4d4d4d"
         id="path3942" /><path
         d="m 9.075,6 v 5 H 13.15 V 6 Z m 1,1 h 2.076 v 3 h -2.076 z"
         fill="#42a5f5"
         id="path3944" /><path
         d="m 3.56,5.65 v 2 h 1 V 7.371 A 1.5,1.5 0 1 1 2.29,9.275 L 1.367,9.67 A 2.5,2.5 0 0 0 6.074,8.5 2.5,2.5 0 0 0 5.25,6.65 h 0.31 v -1 z"
         fill="#e54a16"
         id="path3946" /></g></g><g
     id="g3964"
     transform="matrix(0.08196567,0,0,0.08196567,528.58889,520.73172)"><path
       id="path3952"
       style="fill:#999999;fill-opacity:1;stroke:#000000;stroke-width:1.00782;stroke-linecap:round;stroke-linejoin:round"
       d="m 117.37705,-870.1638 c -9.87777,0 -19.754565,3.78538 -27.323417,11.35424 l -2.560668,2.56067 c -15.137698,15.13769 -15.137698,39.51091 0,54.64861 L 198.7116,-690.37985 87.492965,-579.15942 c -15.137698,15.1377 -15.137698,39.51092 0,54.64861 l 2.560674,2.56068 c 15.137691,15.13769 39.510911,15.13769 54.648611,0 l 138.54384,-138.54384 2.56246,-2.56067 c 15.13771,-15.1377 15.13771,-39.51271 10e-6,-54.65042 l -2.56247,-2.56066 -138.54384,-138.54384 c -7.56885,-7.56885 -17.44744,-11.35423 -27.3252,-11.35424 z" /><g
       style="fill:none"
       id="g3962"
       transform="matrix(53.125991,0,0,53.125991,697.0277,-1137.1696)"><path
         d="m 7.074,4.5 v 8 h 1 v -8 z"
         fill="#e54a16"
         id="path3954" /><path
         d="m 0,4 v 9 H 15.15 V 4 Z m 1,1 h 13.15 v 7 H 1 Z"
         fill="#4d4d4d"
         id="path3956" /><path
         d="m 9.075,6 v 5 H 13.15 V 6 Z m 1,1 h 2.076 v 3 h -2.076 z"
         fill="#42a5f5"
         id="path3958" /><path
         d="m 3.56,5.65 v 2 h 1 V 7.371 A 1.5,1.5 0 1 1 2.29,9.275 L 1.367,9.67 A 2.5,2.5 0 0 0 6.074,8.5 2.5,2.5 0 0 0 5.25,6.65 h 0.31 v -1 z"
         fill="#e54a16"
         id="path3960" /></g></g><g
     id="g3978"
     transform="matrix(0.08196567,0,0,0.08196567,456.07977,594.65285)"><path
       id="path3966"
       style="fill:#999999;fill-opacity:1;stroke:#000000;stroke-width:1.00782;stroke-linecap:round;stroke-linejoin:round"
       d="m 117.37705,-870.1638 c -9.87777,0 -19.754565,3.78538 -27.323417,11.35424 l -2.560668,2.56067 c -15.137698,15.13769 -15.137698,39.51091 0,54.64861 L 198.7116,-690.37985 87.492965,-579.15942 c -15.137698,15.1377 -15.137698,39.51092 0,54.64861 l 2.560674,2.56068 c 15.137691,15.13769 39.510911,15.13769 54.648611,0 l 138.54384,-138.54384 2.56246,-2.56067 c 15.13771,-15.1377 15.13771,-39.51271 10e-6,-54.65042 l -2.56247,-2.56066 -138.54384,-138.54384 c -7.56885,-7.56885 -17.44744,-11.35423 -27.3252,-11.35424 z" /><g
       style="fill:none"
       id="g3976"
       transform="matrix(53.125991,0,0,53.125991,697.0277,-1137.1696)"><path
         d="m 7.074,4.5 v 8 h 1 v -8 z"
         fill="#e54a16"
         id="path3968" /><path
         d="m 0,4 v 9 H 15.15 V 4 Z m 1,1 h 13.15 v 7 H 1 Z"
         fill="#4d4d4d"
         id="path3970" /><path
         d="m 9.075,6 v 5 H 13.15 V 6 Z m 1,1 h 2.076 v 3 h -2.076 z"
         fill="#42a5f5"
         id="path3972" /><path
         d="m 3.56,5.65 v 2 h 1 V 7.371 A 1.5,1.5 0 1 1 2.29,9.275 L 1.367,9.67 A 2.5,2.5 0 0 0 6.074,8.5 2.5,2.5 0 0 0 5.25,6.65 h 0.31 v -1 z"
         fill="#e54a16"
         id="path3974" /></g></g><g
     id="g3992"
     transform="matrix(0.08196567,0,0,0.08196567,379.11239,102.14619)"><path
       id="path3980"
       style="fill:#999999;fill-opacity:1;stroke:#000000;stroke-width:1.00782;stroke-linecap:round;stroke-linejoin:round"
       d="m 117.37705,-870.1638 c -9.87777,0 -19.754565,3.78538 -27.323417,11.35424 l -2.560668,2.56067 c -15.137698,15.13769 -15.137698,39.51091 0,54.64861 L 198.7116,-690.37985 87.492965,-579.15942 c -15.137698,15.1377 -15.137698,39.51092 0,54.64861 l 2.560674,2.56068 c 15.137691,15.13769 39.510911,15.13769 54.648611,0 l 138.54384,-138.54384 2.56246,-2.56067 c 15.13771,-15.1377 15.13771,-39.51271 10e-6,-54.65042 l -2.56247,-2.56066 -138.54384,-138.54384 c -7.56885,-7.56885 -17.44744,-11.35423 -27.3252,-11.35424 z" /><g
       style="fill:none"
       id="g3990"
       transform="matrix(53.125991,0,0,53.125991,697.0277,-1137.1696)"><path
         d="m 7.074,4.5 v 8 h 1 v -8 z"
         fill="#e54a16"
         id="path3982" /><path
         d="m 0,4 v 9 H 15.15 V 4 Z m 1,1 h 13.15 v 7 H 1 Z"
         fill="#4d4d4d"
         id="path3984" /><path
         d="m 9.075,6 v 5 H 13.15 V 6 Z m 1,1 h 2.076 v 3 h -2.076 z"
         fill="#42a5f5"
         id="path3986" /><path
         d="m 3.56,5.65 v 2 h 1 V 7.371 A 1.5,1.5 0 1 1 2.29,9.275 L 1.367,9.67 A 2.5,2.5 0 0 0 6.074,8.5 2.5,2.5 0 0 0 5.25,6.65 h 0.31 v -1 z"
         fill="#e54a16"
         id="path3988" /></g></g><g
     id="g4006"
     transform="matrix(0.12431252,0,0,0.12431252,57.395297,237.28359)"><path
       id="path3994"
       style="fill:#4d4d4d;fill-opacity:1;stroke:#000000;stroke-width:1.00782;stroke-linecap:round;stroke-linejoin:round"
       d="m 366.43215,-759.65614 c 0,-9.87777 -3.78538,-19.75456 -11.35424,-27.32341 l -2.56067,-2.56067 c -15.13769,-15.1377 -39.51091,-15.1377 -54.64861,0 L 186.6482,-678.32159 75.427769,-789.54022 c -15.1377,-15.1377 -39.51092,-15.1377 -54.64861,0 l -2.56068,2.56067 c -15.1376905,15.13769 -15.1376905,39.51091 0,54.64861 l 138.543841,138.54384 2.56067,2.56246 c 15.1377,15.13771 39.51271,15.13771 54.65042,10e-6 l 2.56066,-2.56247 138.54384,-138.54384 c 7.56885,-7.56885 11.35423,-17.44744 11.35424,-27.3252 z" /><g
       style="fill:none"
       id="g4004"
       transform="matrix(53.125991,0,0,53.125991,697.0277,-1137.1696)"><path
         d="m 7.074,4.5 v 8 h 1 v -8 z"
         fill="#e54a16"
         id="path3996" /><path
         d="m 0,4 v 9 H 15.15 V 4 Z m 1,1 h 13.15 v 7 H 1 Z"
         fill="#4d4d4d"
         id="path3998" /><path
         d="m 9.075,6 v 5 H 13.15 V 6 Z m 1,1 h 2.076 v 3 h -2.076 z"
         fill="#42a5f5"
         id="path4000" /><path
         d="m 3.56,5.65 v 2 h 1 V 7.371 A 1.5,1.5 0 1 1 2.29,9.275 L 1.367,9.67 A 2.5,2.5 0 0 0 6.074,8.5 2.5,2.5 0 0 0 5.25,6.65 h 0.31 v -1 z"
         fill="#e54a16"
         id="path4002" /></g></g><g
     id="g4020"
     transform="matrix(0.12431252,0,0,0.12431252,162.72333,339.38071)"><path
       id="path4008"
       style="fill:#999999;fill-opacity:1;stroke:#000000;stroke-width:1.00782;stroke-linecap:round;stroke-linejoin:round"
       d="m 117.37705,-870.1638 c -9.87777,0 -19.754565,3.78538 -27.323417,11.35424 l -2.560668,2.56067 c -15.137698,15.13769 -15.137698,39.51091 0,54.64861 L 198.7116,-690.37985 87.492965,-579.15942 c -15.137698,15.1377 -15.137698,39.51092 0,54.64861 l 2.560674,2.56068 c 15.137691,15.13769 39.510911,15.13769 54.648611,0 l 138.54384,-138.54384 2.56246,-2.56067 c 15.13771,-15.1377 15.13771,-39.51271 10e-6,-54.65042 l -2.56247,-2.56066 -138.54384,-138.54384 c -7.56885,-7.56885 -17.44744,-11.35423 -27.3252,-11.35424 z" /><g
       style="fill:none"
       id="g4018"
       transform="matrix(53.125991,0,0,53.125991,697.0277,-1137.1696)"><path
         d="m 7.074,4.5 v 8 h 1 v -8 z"
         fill="#e54a16"
         id="path4010" /><path
         d="m 0,4 v 9 H 15.15 V 4 Z m 1,1 h 13.15 v 7 H 1 Z"
         fill="#4d4d4d"
         id="path4012" /><path
         d="m 9.075,6 v 5 H 13.15 V 6 Z m 1,1 h 2.076 v 3 h -2.076 z"
         fill="#42a5f5"
         id="path4014" /><path
         d="m 3.56,5.65 v 2 h 1 V 7.371 A 1.5,1.5 0 1 1 2.29,9.275 L 1.367,9.67 A 2.5,2.5 0 0 0 6.074,8.5 2.5,2.5 0 0 0 5.25,6.65 h 0.31 v -1 z"
         fill="#e54a16"
         id="path4016" /></g></g><g
     id="g4034"
     transform="matrix(0.12431252,0,0,0.12431252,162.72333,444.77994)"><path
       id="path4022"
       style="fill:#999999;fill-opacity:1;stroke:#000000;stroke-width:1.00782;stroke-linecap:round;stroke-linejoin:round"
       d="m 117.37705,-870.1638 c -9.87777,0 -19.754565,3.78538 -27.323417,11.35424 l -2.560668,2.56067 c -15.137698,15.13769 -15.137698,39.51091 0,54.64861 L 198.7116,-690.37985 87.492965,-579.15942 c -15.137698,15.1377 -15.137698,39.51092 0,54.64861 l 2.560674,2.56068 c 15.137691,15.13769 39.510911,15.13769 54.648611,0 l 138.54384,-138.54384 2.56246,-2.56067 c 15.13771,-15.1377 15.13771,-39.51271 10e-6,-54.65042 l -2.56247,-2.56066 -138.54384,-138.54384 c -7.56885,-7.56885 -17.44744,-11.35423 -27.3252,-11.35424 z" /><g
       style="fill:none"
       id="g4032"
       transform="matrix(53.125991,0,0,53.125991,697.0277,-1137.1696)"><path
         d="m 7.074,4.5 v 8 h 1 v -8 z"
         fill="#e54a16"
         id="path4024" /><path
         d="m 0,4 v 9 H 15.15 V 4 Z m 1,1 h 13.15 v 7 H 1 Z"
         fill="#4d4d4d"
         id="path4026" /><path
         d="m 9.075,6 v 5 H 13.15 V 6 Z m 1,1 h 2.076 v 3 h -2.076 z"
         fill="#42a5f5"
         id="path4028" /><path
         d="m 3.56,5.65 v 2 h 1 V 7.371 A 1.5,1.5 0 1 1 2.29,9.275 L 1.367,9.67 A 2.5,2.5 0 0 0 6.074,8.5 2.5,2.5 0 0 0 5.25,6.65 h 0.31 v -1 z"
         fill="#e54a16"
         id="path4030" /></g></g><g
     id="g4048"
     transform="matrix(0.12431252,0,0,0.12431252,167.36561,553.48128)"><path
       id="path4036"
       style="fill:#4d4d4d;fill-opacity:1;stroke:#000000;stroke-width:1.00782;stroke-linecap:round;stroke-linejoin:round"
       d="m 366.43215,-759.65614 c 0,-9.87777 -3.78538,-19.75456 -11.35424,-27.32341 l -2.56067,-2.56067 c -15.13769,-15.1377 -39.51091,-15.1377 -54.64861,0 L 186.6482,-678.32159 75.427769,-789.54022 c -15.1377,-15.1377 -39.51092,-15.1377 -54.64861,0 l -2.56068,2.56067 c -15.1376905,15.13769 -15.1376905,39.51091 0,54.64861 l 138.543841,138.54384 2.56067,2.56246 c 15.1377,15.13771 39.51271,15.13771 54.65042,10e-6 l 2.56066,-2.56247 138.54384,-138.54384 c 7.56885,-7.56885 11.35423,-17.44744 11.35424,-27.3252 z" /><g
       style="fill:none"
       id="g4046"
       transform="matrix(53.125991,0,0,53.125991,697.0277,-1137.1696)"><path
         d="m 7.074,4.5 v 8 h 1 v -8 z"
         fill="#e54a16"
         id="path4038" /><path
         d="m 0,4 v 9 H 15.15 V 4 Z m 1,1 h 13.15 v 7 H 1 Z"
         fill="#4d4d4d"
         id="path4040" /><path
         d="m 9.075,6 v 5 H 13.15 V 6 Z m 1,1 h 2.076 v 3 h -2.076 z"
         fill="#42a5f5"
         id="path4042" /><path
         d="m 3.56,5.65 v 2 h 1 V 7.371 A 1.5,1.5 0 1 1 2.29,9.275 L 1.367,9.67 A 2.5,2.5 0 0 0 6.074,8.5 2.5,2.5 0 0 0 5.25,6.65 h 0.31 v -1 z"
         fill="#e54a16"
         id="path4044" /></g></g><g
     id="g4062"
     transform="matrix(0.12431252,0,0,0.12431252,272.69365,655.5784)"><path
       id="path4050"
       style="fill:#999999;fill-opacity:1;stroke:#000000;stroke-width:1.00782;stroke-linecap:round;stroke-linejoin:round"
       d="m 117.37705,-870.1638 c -9.87777,0 -19.754565,3.78538 -27.323417,11.35424 l -2.560668,2.56067 c -15.137698,15.13769 -15.137698,39.51091 0,54.64861 L 198.7116,-690.37985 87.492965,-579.15942 c -15.137698,15.1377 -15.137698,39.51092 0,54.64861 l 2.560674,2.56068 c 15.137691,15.13769 39.510911,15.13769 54.648611,0 l 138.54384,-138.54384 2.56246,-2.56067 c 15.13771,-15.1377 15.13771,-39.51271 10e-6,-54.65042 l -2.56247,-2.56066 -138.54384,-138.54384 c -7.56885,-7.56885 -17.44744,-11.35423 -27.3252,-11.35424 z" /><g
       style="fill:none"
       id="g4060"
       transform="matrix(53.125991,0,0,53.125991,697.0277,-1137.1696)"><path
         d="m 7.074,4.5 v 8 h 1 v -8 z"
         fill="#e54a16"
         id="path4052" /><path
         d="m 0,4 v 9 H 15.15 V 4 Z m 1,1 h 13.15 v 7 H 1 Z"
         fill="#4d4d4d"
         id="path4054" /><path
         d="m 9.075,6 v 5 H 13.15 V 6 Z m 1,1 h 2.076 v 3 h -2.076 z"
         fill="#42a5f5"
         id="path4056" /><path
         d="m 3.56,5.65 v 2 h 1 V 7.371 A 1.5,1.5 0 1 1 2.29,9.275 L 1.367,9.67 A 2.5,2.5 0 0 0 6.074,8.5 2.5,2.5 0 0 0 5.25,6.65 h 0.31 v -1 z"
         fill="#e54a16"
         id="path4058" /></g></g><g
     id="g4076"
     transform="matrix(0.12431252,0,0,0.12431252,45.991428,126.13356)"><path
       id="path4064"
       style="fill:#999999;fill-opacity:1;stroke:#000000;stroke-width:1.00782;stroke-linecap:round;stroke-linejoin:round"
       d="m 117.37705,-870.1638 c -9.87777,0 -19.754565,3.78538 -27.323417,11.35424 l -2.560668,2.56067 c -15.137698,15.13769 -15.137698,39.51091 0,54.64861 L 198.7116,-690.37985 87.492965,-579.15942 c -15.137698,15.1377 -15.137698,39.51092 0,54.64861 l 2.560674,2.56068 c 15.137691,15.13769 39.510911,15.13769 54.648611,0 l 138.54384,-138.54384 2.56246,-2.56067 c 15.13771,-15.1377 15.13771,-39.51271 10e-6,-54.65042 l -2.56247,-2.56066 -138.54384,-138.54384 c -7.56885,-7.56885 -17.44744,-11.35423 -27.3252,-11.35424 z" /><g
       style="fill:none"
       id="g4074"
       transform="matrix(53.125991,0,0,53.125991,697.0277,-1137.1696)"><path
         d="m 7.074,4.5 v 8 h 1 v -8 z"
         fill="#e54a16"
         id="path4066" /><path
         d="m 0,4 v 9 H 15.15 V 4 Z m 1,1 h 13.15 v 7 H 1 Z"
         fill="#4d4d4d"
         id="path4068" /><path
         d="m 9.075,6 v 5 H 13.15 V 6 Z m 1,1 h 2.076 v 3 h -2.076 z"
         fill="#42a5f5"
         id="path4070" /><path
         d="m 3.56,5.65 v 2 h 1 V 7.371 A 1.5,1.5 0 1 1 2.29,9.275 L 1.367,9.67 A 2.5,2.5 0 0 0 6.074,8.5 2.5,2.5 0 0 0 5.25,6.65 h 0.31 v -1 z"
         fill="#e54a16"
         id="path4072" /></g></g></svg>
