<svg width="32cm" height="32cm" viewBox="0 0 320 320" xml:space="preserve" xmlns="http://www.w3.org/2000/svg">
  <path d="M40 0v200h-9.9999v9.9999H40v20h-9.9999v9.9999H40v80h250v-90h30v-9.9999h-30v-20h30v-10h-30v-190H40zm-9.9999 240h-30v10h30v-10zm0-30h-30v9.9999h30V210z"/>
  <path d="M80 270v30h10v10h150v-10h10v-20h-10v-20h-10v-10h-20v10h-90v-10h-20v10H90v10H80" fill="#eafbd9"/>
  <path d="M270 130h9.9999H270zm9.9999 10h9.9999-9.9999zM270 149.9999h20-20zm-170 20v9.9999H50v20h70v9.9999H50v20h20v-9.9999h50v9.9999H70v9.9999H50v20h9.9999v-9.9999h30v-10h40v-9.9999h10v-9.9999h20V210H150v-9.9999h-9.9999v-10h-20v-9.9999h-9.9999v-9.9999h-9.9999z" fill="#f1ffde"/>
  <path d="M120 260h-10v10h-10v10H90v10h10v10h10v10h110v-10h10v-10h10v-10h-10v-10h-10v-10h-10v10h-90z" fill="#faffe7"/>
  <path d="M230 170v9.9999h-20v9.9999h-20v10h-9.9999v9.9999h-9.9999v9.9999h20v9.9999h10v9.9999h40v10h30v-10h9.9999v-9.9999h-70v-9.9999h70v-20h-30v9.9999h-40v-9.9999h40v-10h30v-20h-50z" fill="#f1ffde"/>
  <path d="M50 10h230v160H100v10H50V10" fill="#8d3900"/>
  <path fill="#a74700" d="M50 10h60v20H50z"/>
  <rect x="190" y="10" width="50" height="40" ry="0" fill="#853700"/>
  <path d="M190 50h10v10h-10zm10-10h10v10h-10zm-10-10h10v10h-10z" fill="#974200"/>
  <path d="M120 30v20h10v40h-10v10h-10v10h10v10h10v10h20V10h-30z" fill="#853700"/>
  <path d="M150 70h-10v30h-10v10h-10v10h10v10h20V70" fill="#8d3900"/>
  <path d="M50 80h10v10h30v10h10v10h10v10h10v10h10v10h-10v10h-10v10h-10v10H50z" fill="#a95000"/>
  <path d="M150 250v10h30v-10z" fill="#340fa8"/>
  <path d="M50 270v40h40v-10H80v-20H70v10H60v-20H50m190 30v10h40v-70h-10v30h-10v20h-10v10h-10" fill="#a74600"/>
  <path d="M200 50v60h40v-10h20V90h20V60h-10V50h-10V40h-50v10zM60 30h50v10h10v10h10v40h-10v10H90V90H70V80H50V40h10z" fill="#efbb89"/>
  <path d="M220 50h40v10h10v10h10v10h-30v10h-20v10h-20V70h10V50M110 40v20h10v30h-20V80H80V70H60V50h10V40h40"/>
  <path fill="#200067" d="M50 60h10v10H50z"/>
  <path fill="#f5bf89" d="M60 80h10v10H60z"/>
  <path d="M50 90h10v10H50zm0 20h10v10H50zm0 20h10v10H50zm0 20h10v10H50z" fill="#efbb89"/>
  <path d="M60 160h10v10H60zm0-20h10v10H60zm0-20h10v10H60zm0-20h10v10H60z" fill="#eeb37e"/>
  <path fill="#f5bc7f" d="M70 90h10v10H70z"/>
  <path d="M70 110h10v10H70zm0 20h10v10H70zm0 20h10v10H70z" fill="#eeb37e"/>
  <path fill="#a95700" d="M80 150h10v10H80zm-10 10h10v10H70z"/>
  <path fill="#eeb37e" d="M80 160h10v10H80z"/>
  <path fill="#dd8024" d="M100 160h10v10h-10z"/>
  <path fill="#eeb37e" d="M90 150h10v10H90z"/>
  <path fill="#853700" d="M110 160h10v10h-10z"/>
  <path fill="#dc7916" d="M110 150h10v10h-10z"/>
  <path fill="#a74600" d="M120 150h10v10h-10z"/>
  <path fill="#dc7916" d="M120 140h10v10h-10zm10-10h10v10h-10z"/>
  <path fill="#a74600" d="M130 140h10v10h-10zm10-10h10v10h-10z"/>
  <path fill="#dc7916" d="M120 120h10v10h-10zm-10-10h10v10h-10z"/>
  <path fill="#e28123" d="M100 100h10v10h-10z"/>
  <path fill="#dc7916" d="M120 100h10v10h-10zm10-10h10v10h-10z"/>
  <path fill="#dd8024" d="M130 70h10v10h-10z"/>
  <path d="M130 60h10v10h-10zm0 20h10v10h-10zm-10 10h10v10h-10zm-10 10h10v10h-10z" fill="#8e3f00"/>
  <path fill="#dc7916" d="M140 80h10v10h-10zm0-20h10v10h-10z"/>
  <path fill="#dd8024" d="M130 50h10v10h-10z"/>
  <path fill="#e28123" d="M120 40h10v10h-10z"/>
  <path fill="#f6c092" d="M120 50h10v10h-10z"/>
  <path fill="#e28123" d="M110 30h10v10h-10zM90 20h10v10H90z"/>
  <path fill="#a14900" d="M110 20h10v10h-10z"/>
  <path fill="#e28123" d="M70 20h10v10H70z"/>
  <path fill="#a95000" d="M60 20h10v10H60zM50 30h10v10H50z"/>
  <path d="M80 10h10v10H80zm20 0h10v10h-10zm-40 0h10v10H60z" fill="#a04b00"/>
  <path fill="#dc7916" d="M140 100h10v10h-10zm-10 10h10v10h-10z"/>
  <path d="M80 140h10v10H80zm0-20h10v10H80zm0-20h10v10H80z" fill="#eeb37e"/>
  <path fill="#efbb89" d="M90 110h10v10H90z"/>
  <path fill="#eeb37e" d="M90 130h10v10H90z"/>
  <path fill="#8e3f00" d="M90 160h10v10H90z"/>
  <path fill="#eeb37e" d="M100 140h10v10h-10zm0-20h10v10h-10z"/>
  <path fill="#efbb89" d="M110 130h10v10h-10z"/>
  <path fill="#efffda" d="M60 70h10v10H60z"/>
  <path fill="#deffd5" d="M70 70h10v10H70z"/>
  <path fill="#ecffd5" d="M80 80h10v10H80z"/>
  <path fill="#f0f922" d="M70 80h10v10H70z"/>
  <path fill="#deffd5" d="M90 80h10v10H90z"/>
  <path fill="#e1e213" d="M90 90h10v10H90z"/>
  <path fill="#efffda" d="M100 90h10v10h-10z"/>
  <path fill="#ecfcd1" d="M110 90h10v10h-10z"/>
  <path fill="#a04400" d="M50 50h10v10H50zm10-10h10v10H60z"/>
  <path fill="#efbb89" d="M50 20h10v10H50z"/>
  <path fill="#1f006f" d="M270 70h10v10h-10z"/>
  <path d="M230 60v20h10V70h10V60zM100 50v20H90V60H80V50h20" fill="#eafbd9"/>
  <path fill="#fff" d="M90 50h10v10H90zm140 10h10v10h-10z"/>
  <path d="M140 9.9999v9.9999h9.9999v30h9.9999v120h80v-9.9999h-9.9999V150H220v-9.9999h-9.9999v-10h-9.9999v-9.9999h-10v-100h10v-9.9999h-50z" fill="#7a2e00"/>
  <path d="M130 280h10v10h-10zm30 10h10v10h-10zm30-10h10v10h-10zm30-10h10v10h-10z" fill="#eca25e"/>
  <path fill="#ec9854" d="M110 300h10v10h-10z"/>
  <path fill="#dc7916" d="M50 280h10v10H50z"/>
  <path fill="#a03e00" d="M50 270h10v10H50z"/>
  <path fill="#d67626" d="M70 280h10v10H70z"/>
  <path fill="#dc7916" d="M60 290h10v10H60zm10 10h10v10H70z"/>
  <path fill="#e28214" d="M50 300h10v10H50z"/>
  <path fill="#733200" d="M70 290h10v10H70zm10 10h10v10H80z"/>
  <path fill="#e27a12" d="M270 270h10v10h-10z"/>
  <path fill="#a13d00" d="M260 270h10v10h-10z"/>
  <path fill="#dc7916" d="M260 280h10v10h-10z"/>
  <path fill="#e27a12" d="M270 290h10v10h-10zm-10 10h10v10h-10z"/>
  <path fill="#dd8024" d="M250 290h10v10h-10z"/>
  <path fill="#e9892f" d="M240 300h10v10h-10z"/>
  <path fill="#a04400" d="M270 260h10v10h-10z"/>
  <path fill="#eaef19" d="M270 240h10v10h-10z"/>
  <path fill="#dc8218" d="M270 250h10v10h-10z"/>
  <path fill="none" d="M270 240h10v10h-10z"/>
  <path fill="#838383" d="M40 230h10v10H40z"/>
  <path fill="#84908b" d="M60 230h10v10H60z"/>
  <path d="M80 220h10v10H80zm20 0h10v10h-10zm120-20h10v10h-10zm0 20h10v10h-10zm20 0h10v10h-10z" fill="#838383"/>
  <path fill="#84908b" d="M240 200h10v10h-10z"/>
  <path d="M260 190h10v10h-10zm0 30h10v10h-10zm20-30h10v10h-10zm20 0h10v10h-10zm-20 30h10v10h-10zm20 0h10v10h-10z" fill="#838383"/>
  <path fill="#c5c5c5" d="M290 180h10v10h-10z"/>
  <path d="M0 210h10v10H0zm20 0h10v10H20zm60-10h10v10H80zm20 0h10v10h-10zm-60 0h10v10H40zm20 0h10v10H60zM0 240h10v10H0zm20 0h10v10H20z" fill="#838383"/>
  <path d="M50 250h10v10H50zm10-10h10v10H60zm0-20h10v10H60z" fill="#e6e6e6"/>
  <path d="M50 210h10v10H50zm0-20h10v10H50zm10-10h10v10H60z" fill="#ededed"/>
  <path fill="#f7ffde" d="M50 180h10v10H50zm20 0h10v10H70z"/>
  <path fill="#faffe7" d="M90 180h10v10H90z"/>
  <path fill="#f6c092" d="M90 170h10v10H90z"/>
  <path fill="#e89231" d="M80 170h10v10H80z"/>
  <path fill="#e1e213" d="M70 170h10v10H70z"/>
  <path fill="#592f00" d="M60 170h10v10H60z"/>
  <path fill="#e1e213" d="M50 170h10v10H50z"/>
  <path fill="#eafbd9" d="M110 180h10v10h-10z"/>
  <path fill="#ededed" d="M70 190h10v10H70z"/>
  <path d="M70 210h10v10H70zm0 20h10v10H70zm10 10h10v10H80zm10-10h10v10H90zm0-20h10v10H90z" fill="#e6e6e6"/>
  <path fill="#ededed" d="M90 190h10v10H90z"/>
  <path fill="#f0f3e0" d="M80 180h10v10H80z"/>
  <path fill="#f4f4f4" d="M100 180h10v10h-10z"/>
  <path fill="#ededed" d="M110 190h10v10h-10z"/>
  <path fill="#e6e6e6" d="M110 210h10v10h-10zm0 20h10v10h-10z"/>
  <path fill="#ededed" d="M120 220h10v10h-10zm0-20h10v10h-10z"/>
  <path fill="#e6e6e6" d="M130 190h10v10h-10z"/>
  <path fill="#f4f4f4" d="M130 210h10v10h-10z"/>
  <path fill="#faffe7" d="M130 200h10v10h-10zm-10 10h10v10h-10z"/>
  <path fill="#e6e6e6" d="M140 200h10v10h-10z"/>
  <path fill="#d3d3d3" d="M150 210h10v10h-10zm20 0h10v10h-10z"/>
  <path fill="#e6e6e6" d="M180 200h10v10h-10zm10-10h10v10h-10z"/>
  <path fill="#ededed" d="M200 200h10v10h-10z"/>
  <path fill="#faffe7" d="M190 200h10v10h-10zm10 10h10v10h-10z"/>
  <path fill="#f4f4f4" d="M190 210h10v10h-10z"/>
  <path fill="#ededed" d="M200 220h10v10h-10z"/>
  <path fill="#eafbd9" d="M190 220h10v10h-10zm10 10h10v10h-10z"/>
  <path fill="#ededed" d="M210 190h10v10h-10z"/>
  <path fill="#e6e6e6" d="M210 210h10v10h-10zm0 20h10v10h-10z"/>
  <path fill="#ededed" d="M220 180h10v10h-10z"/>
  <path fill="#e6e6e6" d="M230 170h10v10h-10z"/>
  <path fill="#faffe7" d="M230 180h10v10h-10z"/>
  <path fill="#f7ffde" d="M240 170h10v10h-10zm20 0h10v10h-10z"/>
  <path fill="#ededed" d="M230 190h10v10h-10z"/>
  <path fill="#e6e6e6" d="M230 210h10v10h-10zm0 20h10v10h-10z"/>
  <path fill="#f4f4f4" d="M240 180h10v10h-10z"/>
  <path fill="#e6e6e6" d="M240 240h10v10h-10z"/>
  <path fill="#ededed" d="M250 210h10v10h-10zm0 20h10v10h-10z"/>
  <path fill="#e8ecdc" d="M260 240h10v10h-10zm10-10h10v10h-10z"/>
  <path fill="#ededed" d="M270 210h10v10h-10zm0-40h10v10h-10z"/>
  <path fill="#eeeee6" d="M250 170h10v10h-10z"/>
  <path fill="#f0f3e0" d="M260 180h10v10h-10zm0 20h10v10h-10z"/>
  <path fill="none" d="M260 240h10v10h-10zm10-10h10v10h-10z"/>
  <path fill="#e6e6e6" d="M110 250h10v10h-10z"/>
  <path fill="#f4f4f4" d="M100 260h10v10h-10zm-10 10h10v10H90z"/>
  <path fill="#f0f3e0" d="M80 280h10v10H80z"/>
  <path d="M90 290h10v10H90zm10-10h10v10h-10zm40 20h10v10h-10zm40 0h10v10h-10zm20 0h10v10h-10zm10-10h10v10h-10zm10 10h10v10h-10zm10-10h10v10h-10z" fill="#f4f4f4"/>
  <path fill="#e6e6e6" d="M240 280h10v10h-10z"/>
  <path fill="#f4f4f4" d="M110 270h10v10h-10z"/>
  <path d="M120 260h10v10h-10zm20 0h10v10h-10zm20 0h10v10h-10z" fill="#ededed"/>
  <path fill="#f4f4f4" d="M150 270h10v10h-10zm20 0h10v10h-10z"/>
  <path fill="#ededed" d="M180 260h10v10h-10zm20 0h10v10h-10z"/>
  <path fill="#e6e6e6" d="M210 250h10v10h-10z"/>
  <path d="M100 300h10v10h-10zm10-10h10v10h-10zm10-10h10v10h-10zm0 20h10v10h-10zm10-10h10v10h-10zm10-10h10v10h-10zm10 10h10v10h-10zm10-10h10v10h-10zm10 10h10v10h-10zm-10 10h10v10h-10zm20-20h10v10h-10zm10 10h10v10h-10zm10-10h10v10h-10zm-10-10h10v10h-10zm20 0h10v10h-10zm10 10h10v10h-10z" fill="#f0f3e0"/>
  <path fill="#e8ecdc" d="M230 270h10v10h-10z"/>
  <path fill="#f0f3e0" d="M220 260h10v10h-10zm-90 10h10v10h-10z"/>
  <path d="M110 9.9999v9.9999h9.9999v10h9.9999v9.9999h10v9.9999h9.9999v90h-9.9999v9.9999h-10v9.9999h-9.9999v9.9999h40v-130H150v-20h-9.9999V9.9994z" fill="#833800"/>
  <path fill="#a14300" d="M130 150h10v10h-10z"/>
  <path fill="#a03e00" d="M140 150h10v10h-10z"/>
  <path fill="#974200" d="M140 160h10v10h-10zm10-10h10v10h-10z"/>
  <g fill="#7a2e00">
    <path d="M150 160h10v10h-10z"/>
    <path d="M150 160h10v10h-10zm-20 0h10v10h-10z"/>
  </g>
  <path fill="#974200" d="M120 160h10v10h-10z"/>
  <path fill="#984800" d="M110 10h10v10h-10z"/>
  <path fill="#974200" d="M120 20h10v10h-10zm10-10h10v10h-10z"/>
  <path d="M150 10h10v10h-10zm20 0h10v10h-10zm20 0h10v10h-10z" fill="#4a0800"/>
  <path fill="#7a2e00" d="M190 20h10v10h-10zm0 20h10v10h-10z"/>
  <path d="M160 20h10v10h-10zm20 0h10v10h-10zm-30 10h10v10h-10zm20 0h10v10h-10zm-10 10h10v10h-10zm20 0h10v10h-10zm-10 10h10v10h-10zm-10 10h10v10h-10zm20 0h10v10h-10zm-10 10h10v10h-10zm-10 10h10v10h-10zm20 0h10v10h-10zm-10 10h10v10h-10zm-10 10h10v10h-10zm20 0h10v10h-10zm-10 10h10v10h-10zm-10 10h10v10h-10zm20 0h10v10h-10zm-10 10h10v10h-10zm-10 10h10v10h-10zm0 20h10v10h-10zm10-10h10v10h-10z" fill="#4a0800"/>
  <path fill="#843100" d="M160 150h10v10h-10z"/>
  <path d="M170 160h10v10h-10zm20 0h10v10h-10zm20 0h10v10h-10z" fill="#722400"/>
  <path d="M180 140h10v10h-10zm10-10h10v10h-10zm-10 30h10v10h-10zm10-10h10v10h-10zm10-10h10v10h-10zm0 20h10v10h-10zm10-10h10v10h-10zm10 10h10v10h-10z" fill="#4a0800"/>
  <path fill="#843100" d="M120 10h10v10h-10z"/>
  <path fill="#974200" d="M140 20h10v10h-10z"/>
  <path fill="#7a2e00" d="M140 30h10v10h-10z"/>
  <path d="M130 30h10v10h-10zm10 10h10v10h-10zm10 90h10v10h-10z" fill="#974200"/>
  <path fill="#dc7916" d="M140 120h10v10h-10z"/>
  <path fill="#a14300" d="M140 140h10v10h-10z"/>
  <path fill="#7a2e00" d="M150 140h10v10h-10z"/>
  <path fill="#974200" d="M150 90h10v10h-10zm0-20h10v10h-10z"/>
  <path fill="#843100" d="M160 70h10v10h-10z"/>
  <path fill="#974200" d="M150 50h10v10h-10z"/>
  <path fill="#7a2e00" d="M150 40h10v10h-10z"/>
  <path fill="#974200" d="M150 110h10v10h-10z"/>
  <path fill="#dc7916" d="M230 150h10v10h-10z"/>
  <path fill="#a14900" d="M240 160h10v10h-10z"/>
  <path fill="#8d4100" d="M240 150h10v10h-10z"/>
  <path fill="#984800" d="M260 160h10v10h-10z"/>
  <path fill="#853700" d="M250 160h10v10h-10z"/>
  <path fill="#531600" d="M270 160h10v10h-10z"/>
  <path d="M250 150h10v10h-10zm20 0h10v10h-10zm-10-10h10v10h-10zm-20 0h10v10h-10zm-20 0h10v10h-10zm-10-10h10v10h-10zm20 0h10v10h-10zm20 0h10v10h-10zm20 0h10v10h-10zm-10-10h10v10h-10zm-20 0h10v10h-10zm-20 0h10v10h-10zm-20 0h10v10h-10z" fill="#dc7916"/>
  <path d="M190 120h10v10h-10zm10 10h10v10h-10zm10 10h10v10h-10zm10 10h10v10h-10zm10 10h10v10h-10z" fill="#853700"/>
  <path fill="#dc7916" d="M190 110h10v10h-10z"/>
  <path fill="#dd8024" d="M210 110h10v10h-10z"/>
  <path fill="#f6c092" d="M200 100h10v10h-10z"/>
  <path fill="#efffda" d="M210 100h10v10h-10z"/>
  <path fill="#ecfcd1" d="M220 100h10v10h-10z"/>
  <path fill="#eaef19" d="M230 100h10v10h-10z"/>
  <path fill="#deffd5" d="M230 90h10v10h-10z"/>
  <path fill="#efffda" d="M240 90h10v10h-10z"/>
  <path fill="#e1e213" d="M250 90h10v10h-10z"/>
  <path fill="#deffd5" d="M250 80h10v10h-10z"/>
  <path d="M260 80v10h20V80z" fill="#efffda"/>
  <path fill="#a85500" d="M200 110h10v10h-10z"/>
  <path fill="#dd8024" d="M190 90h10v10h-10zm0-20h10v10h-10z"/>
  <path fill="#853700" d="M190 60h10v10h-10z"/>
  <path fill="#a14900" d="M190 50h10v10h-10zm10-10h10v10h-10z"/>
  <path fill="#dc8218" d="M230 110h10v10h-10z"/>
  <path fill="#8e3f00" d="M220 110h10v10h-10z"/>
  <path d="M250 110h10v10h-10zm20 0h10v10h-10zm-10-10h10v10h-10z" fill="#dc7916"/>
  <path fill="#e28123" d="M270 90h10v10h-10z"/>
  <path fill="#e28924" d="M270 50h10v10h-10z"/>
  <path fill="#eeb37e" d="M260 50h10v10h-10z"/>
  <path fill="#e28123" d="M260 40h10v10h-10z"/>
  <path fill="#dc7916" d="M270 30h10v10h-10z"/>
  <path fill="#dd8024" d="M250 30h10v10h-10z"/>
  <path fill="#8e3f00" d="M240 30h10v10h-10z"/>
  <path fill="#8d4100" d="M220 30h10v10h-10z"/>
  <path fill="#dc7916" d="M260 20h10v10h-10z"/>
  <path fill="#974200" d="M270 10h10v10h-10z"/>
  <path fill="#833800" d="M260 10h10v10h-10z"/>
  <path fill="#853700" d="M270 20h10v10h-10z"/>
  <path fill="#833800" d="M240 10h10v10h-10z"/>
  <path d="M250 10h10v10h-10zm-20 0h10v10h-10zm-20 0h10v10h-10zm10 10h10v10h-10zm-20 0h10v10h-10z" fill="#974200"/>
  <path fill="#7a2e00" d="M200 10h10v10h-10z"/>
  <path fill="#843100" d="M220 10h10v10h-10z"/>
  <path fill="#dc7916" d="M240 20h10v10h-10z"/>
  <path fill="#dd8024" d="M230 30h10v10h-10zm-20 0h10v10h-10z"/>
  <path fill="#e28924" d="M240 100h10v10h-10z"/>
  <path fill="#8d4100" d="M250 100h10v10h-10z"/>
  <path fill="#8e3f00" d="M260 90h10v10h-10z"/>
  <path d="M210 70h-10V50h10V40h10v20h-10v10" fill="#f6c092"/>
</svg>
