<?xml version="1.0" encoding="UTF-8" standalone="no"?>
<svg
   width="1088"
   height="687.962"
   viewBox="0 0 1088 687.962"
   version="1.1"
   id="svg162"
   sodipodi:docname="undraw_docusaurus_mountain.svg"
   xml:space="preserve"
   inkscape:version="1.2.2 (732a01da63, 2022-12-09)"
   xmlns:inkscape="http://www.inkscape.org/namespaces/inkscape"
   xmlns:sodipodi="http://sodipodi.sourceforge.net/DTD/sodipodi-0.dtd"
   xmlns="http://www.w3.org/2000/svg"
   xmlns:svg="http://www.w3.org/2000/svg"><defs
     id="defs166" /><sodipodi:namedview
     id="namedview164"
     pagecolor="#ffffff"
     bordercolor="#000000"
     borderopacity="0.25"
     inkscape:showpageshadow="2"
     inkscape:pageopacity="0.0"
     inkscape:pagecheckerboard="0"
     inkscape:deskcolor="#d1d1d1"
     showgrid="false"
     inkscape:zoom="0.48808566"
     inkscape:cx="562.40129"
     inkscape:cy="357.51921"
     inkscape:window-width="1649"
     inkscape:window-height="1259"
     inkscape:window-x="456"
     inkscape:window-y="456"
     inkscape:window-maximized="0"
     inkscape:current-layer="svg162" /><title
     id="title2">Easy to Use</title><g
     id="Group_11"
     data-name="Group 11"><path
       id="Path_83"
       data-name="Path 83"
       d="m 1017.81,560.461 c -5.27,45.15 -16.22,81.4 -31.25,110.31 -20,38.52 -54.21,54.04 -84.77,70.28 a 193.275,193.275 0 0 1 -27.46,11.94 c -55.61,19.3 -117.85,14.18 -166.74,3.99 A 657.282,657.282 0 0 0 603.5,743.821 q -14.97,-0.675 -29.97,-0.67 c -15.42,0.02 -293.07,5.29 -360.67,-131.57 -16.69,-33.76 -28.13,-75 -32.24,-125.27 -11.63,-142.12 52.29,-235.46 134.74,-296.47 155.97,-115.41 369.76,-110.57 523.43,7.88 102.36,78.9 198.2,198.31 179.02,362.74 z"
       transform="translate(-56,-106.019)"
       fill="#3f3d56"
       style="fill:#7d3200;fill-opacity:0.77721518" /><path
       id="Path_84"
       data-name="Path 84"
       d="m 986.56,670.771 c -20,38.52 -47.21,64.04 -77.77,80.28 a 193.272,193.272 0 0 1 -27.46,11.94 c -55.61,19.3 -117.85,14.18 -166.74,3.99 A 657.3,657.3 0 0 0 610.5,753.821 q -14.97,-0.675 -29.97,-0.67 -23.13,0.03 -46.25,1.72 c -100.17,7.36 -253.82,-6.43 -321.42,-143.29 L 382,283.981 444.95,445.6 l 20.09,51.59 55.37,-75.98 28.59,-39.229 130.2,149.27 36.8,-81.27 254.78,207.919 14.21,11.59 z"
       transform="translate(-56,-106.019)"
       fill="#f2f2f2" /><path
       id="Path_85"
       data-name="Path 85"
       d="m 302,282.962 26,-57 36,83 -31,-60 z"
       opacity="0.1" /><path
       id="Path_86"
       data-name="Path 86"
       d="m 610.5,753.821 q -14.97,-0.675 -29.97,-0.67 L 465.04,497.191 Z"
       transform="translate(-56,-106.019)"
       opacity="0.1" /><path
       id="Path_87"
       data-name="Path 87"
       d="M 464.411,315.191 493,292.962 l 130,150 -132,-128 z"
       opacity="0.1" /><path
       id="Path_88"
       data-name="Path 88"
       d="m 908.79,751.051 a 193.265,193.265 0 0 1 -27.46,11.94 L 679.2,531.251 Z"
       transform="translate(-56,-106.019)"
       opacity="0.1" /><circle
       id="Ellipse_11"
       data-name="Ellipse 11"
       cx="3"
       cy="3"
       r="3"
       transform="translate(479,98.962)"
       fill="#f2f2f2" /><circle
       id="Ellipse_12"
       data-name="Ellipse 12"
       cx="3"
       cy="3"
       r="3"
       transform="translate(396,201.962)"
       fill="#f2f2f2" /><circle
       id="Ellipse_13"
       data-name="Ellipse 13"
       cx="2"
       cy="2"
       r="2"
       transform="translate(600,220.962)"
       fill="#f2f2f2" /><circle
       id="Ellipse_14"
       data-name="Ellipse 14"
       cx="2"
       cy="2"
       r="2"
       transform="translate(180,265.962)"
       fill="#f2f2f2" /><circle
       id="Ellipse_15"
       data-name="Ellipse 15"
       cx="2"
       cy="2"
       r="2"
       transform="translate(612,96.962)"
       fill="#f2f2f2" /><circle
       id="Ellipse_16"
       data-name="Ellipse 16"
       cx="2"
       cy="2"
       r="2"
       transform="translate(736,192.962)"
       fill="#f2f2f2" /><circle
       id="Ellipse_17"
       data-name="Ellipse 17"
       cx="2"
       cy="2"
       r="2"
       transform="translate(858,344.962)"
       fill="#f2f2f2" /><path
       id="Path_89"
       data-name="Path 89"
       d="m 306,121.222 h -2.76 v -2.76 h -1.48 v 2.76 H 299 v 1.478 h 2.76 v 2.759 h 1.48 V 122.7 H 306 Z"
       fill="#f2f2f2" /><path
       id="Path_90"
       data-name="Path 90"
       d="m 848,424.222 h -2.76 v -2.76 h -1.48 v 2.76 H 841 v 1.478 h 2.76 v 2.759 h 1.48 V 425.7 H 848 Z"
       fill="#f2f2f2" /><path
       id="Path_91"
       data-name="Path 91"
       d="m 1144,719.981 c 0,16.569 -243.557,74 -544,74 -300.443,0 -544,-57.431 -544,-74 0,-16.569 243.557,14 544,14 300.443,0 544,-30.568 544,-14 z"
       transform="translate(-56,-106.019)"
       fill="#3f3d56"
       style="fill:#3c2e2e;fill-opacity:1" /><path
       id="Path_92"
       data-name="Path 92"
       d="m 1144,719.981 c 0,16.569 -243.557,74 -544,74 -300.443,0 -544,-57.431 -544,-74 0,-16.569 243.557,14 544,14 300.443,0 544,-30.568 544,-14 z"
       transform="translate(-56,-106.019)"
       opacity="0.1"
       style="fill:#552200" /><ellipse
       id="Ellipse_18"
       data-name="Ellipse 18"
       cx="544"
       cy="30"
       rx="544"
       ry="30"
       transform="translate(0,583.962)"
       fill="#3f3d56"
       style="fill:#502d16" /><path
       id="Path_93"
       data-name="Path 93"
       d="m 624,677.981 c 0,33.137 -14.775,24 -33,24 -18.225,0 -33,9.137 -33,-24 0,-33.137 33,-96 33,-96 0,0 33,62.863 33,96 z"
       transform="translate(-56,-106.019)"
       fill="#ff6584"
       style="fill:#ad8600;fill-opacity:1" /><path
       id="Path_94"
       data-name="Path 94"
       d="m 606,690.66 c 0,15.062 -6.716,10.909 -15,10.909 -8.284,0 -15,4.153 -15,-10.909 0,-15.062 15,-43.636 15,-43.636 0,0 15,28.576 15,43.636 z"
       transform="translate(-56,-106.019)"
       opacity="0.1"
       style="fill:#d45500" /><rect
       id="Rectangle_97"
       data-name="Rectangle 97"
       width="92"
       height="18"
       rx="9"
       transform="translate(489,604.962)"
       fill="#2f2e41"
       x="0"
       y="0"
       style="fill:#41412e;fill-opacity:1" /><rect
       id="Rectangle_98"
       data-name="Rectangle 98"
       width="92"
       height="18"
       rx="9"
       transform="translate(489,586.962)"
       fill="#2f2e41"
       x="0"
       y="0"
       style="fill:#41402e;fill-opacity:1" /><path
       id="Path_95"
       data-name="Path 95"
       d="m 193,596.547 c 0,55.343 34.719,100.126 77.626,100.126"
       transform="translate(-56,-106.019)"
       fill="#3f3d56"
       style="fill:#56503d;fill-opacity:1" /><path
       id="Path_96"
       data-name="Path 96"
       d="m 270.626,696.673 c 0,-55.965 38.745,-101.251 86.626,-101.251"
       transform="translate(-56,-106.019)"
       fill="#6c63ff" /><path
       id="Path_97"
       data-name="Path 97"
       d="m 221.125,601.564 c 0,52.57 22.14,95.109 49.5,95.109"
       transform="translate(-56,-106.019)"
       fill="#6c63ff"
       style="fill:#8a6045;fill-opacity:1" /><path
       id="Path_98"
       data-name="Path 98"
       d="m 270.626,696.673 c 0,-71.511 44.783,-129.377 100.126,-129.377"
       transform="translate(-56,-106.019)"
       fill="#3f3d56" /><path
       id="Path_99"
       data-name="Path 99"
       d="m 254.3,697.379 c 0,0 11.009,-0.339 14.326,-2.7 3.317,-2.361 16.934,-5.183 17.757,-1.395 0.823,3.788 16.544,18.844 4.115,18.945 -12.429,0.101 -28.879,-1.936 -32.19,-3.953 -3.311,-2.017 -4.008,-10.897 -4.008,-10.897 z"
       transform="translate(-56,-106.019)"
       fill="#a8a8a8" /><path
       id="Path_100"
       data-name="Path 100"
       d="m 290.716,710.909 c -12.429,0.1 -28.879,-1.936 -32.19,-3.953 -2.522,-1.536 -3.527,-7.048 -3.863,-9.591 l -0.368,0.014 c 0,0 0.7,8.879 4.009,10.9 3.309,2.021 19.761,4.053 32.19,3.953 3.588,-0.029 4.827,-1.305 4.759,-3.2 -0.498,1.142 -1.867,1.855 -4.537,1.877 z"
       transform="translate(-56,-106.019)"
       opacity="0.2" /><path
       id="Path_101"
       data-name="Path 101"
       d="m 777.429,633.081 c 0,38.029 23.857,68.8 53.341,68.8"
       transform="translate(-56,-106.019)"
       fill="#3f3d56" /><path
       id="Path_102"
       data-name="Path 102"
       d="m 830.769,701.882 c 0,-38.456 26.623,-69.575 59.525,-69.575"
       transform="translate(-56,-106.019)"
       fill="#6c63ff" /><path
       id="Path_103"
       data-name="Path 103"
       d="m 796.755,636.528 c 0,36.124 15.213,65.354 34.014,65.354"
       transform="translate(-56,-106.019)"
       fill="#6c63ff"
       style="fill:#806600" /><path
       id="Path_104"
       data-name="Path 104"
       d="m 830.769,701.882 c 0,-49.139 30.773,-88.9 68.8,-88.9"
       transform="translate(-56,-106.019)"
       fill="#3f3d56" /><path
       id="Path_105"
       data-name="Path 105"
       d="m 819.548,702.367 c 0,0 7.565,-0.233 9.844,-1.856 2.279,-1.623 11.636,-3.562 12.2,-0.958 0.564,2.604 11.368,12.949 2.828,13.018 -8.54,0.069 -19.844,-1.33 -22.119,-2.716 -2.275,-1.386 -2.753,-7.488 -2.753,-7.488 z"
       transform="translate(-56,-106.019)"
       fill="#a8a8a8" /><path
       id="Path_106"
       data-name="Path 106"
       d="m 844.574,711.664 c -8.54,0.069 -19.844,-1.33 -22.119,-2.716 -1.733,-1.056 -2.423,-4.843 -2.654,-6.59 l -0.253,0.01 c 0,0 0.479,6.1 2.755,7.487 2.276,1.387 13.579,2.785 22.119,2.716 2.465,-0.02 3.317,-0.9 3.27,-2.2 -0.343,0.788 -1.283,1.278 -3.118,1.293 z"
       transform="translate(-56,-106.019)"
       opacity="0.2" /><path
       id="Path_107"
       data-name="Path 107"
       d="m 949.813,724.718 c 0,0 11.36,-1.729 14.5,-4.591 3.14,-2.862 16.89,-7.488 18.217,-3.667 1.327,3.821 19.494,17.447 6.633,19.107 -12.861,1.66 -30.153,1.609 -33.835,-0.065 -3.682,-1.674 -5.515,-10.784 -5.515,-10.784 z"
       transform="translate(-56,-106.019)"
       fill="#a8a8a8" /><path
       id="Path_108"
       data-name="Path 108"
       d="m 989.228,734.173 c -12.86,1.659 -30.153,1.609 -33.835,-0.065 -2.8,-1.275 -4.535,-6.858 -5.2,-9.45 l -0.379,0.061 c 0,0 1.833,9.109 5.516,10.783 3.683,1.674 20.975,1.725 33.835,0.065 3.712,-0.479 4.836,-1.956 4.529,-3.906 -0.375,1.246 -1.703,2.156 -4.466,2.512 z"
       transform="translate(-56,-106.019)"
       opacity="0.2" /><path
       id="Path_109"
       data-name="Path 109"
       d="m 670.26,723.9 c 0,0 9.587,-1.459 12.237,-3.875 2.65,-2.416 14.255,-6.32 15.374,-3.095 1.119,3.225 16.452,14.725 5.6,16.125 -10.852,1.4 -25.448,1.358 -28.555,-0.055 -3.107,-1.413 -4.656,-9.1 -4.656,-9.1 z"
       transform="translate(-56,-106.019)"
       fill="#a8a8a8" /><path
       id="Path_110"
       data-name="Path 110"
       d="m 703.524,731.875 c -10.853,1.4 -25.448,1.358 -28.555,-0.055 -2.367,-1.076 -3.827,-5.788 -4.39,-7.976 l -0.32,0.051 c 0,0 1.547,7.687 4.655,9.1 3.108,1.413 17.7,1.456 28.555,0.055 3.133,-0.4 4.081,-1.651 3.822,-3.3 -0.314,1.057 -1.435,1.825 -3.767,2.125 z"
       transform="translate(-56,-106.019)"
       opacity="0.2" /><path
       id="Path_111"
       data-name="Path 111"
       d="m 178.389,719.109 c 0,0 7.463,-1.136 9.527,-3.016 2.064,-1.88 11.1,-4.92 11.969,-2.409 0.869,2.511 12.808,11.463 4.358,12.553 -8.45,1.09 -19.811,1.057 -22.23,-0.043 -2.419,-1.1 -3.624,-7.085 -3.624,-7.085 z"
       transform="translate(-56,-106.019)"
       fill="#a8a8a8" /><path
       id="Path_112"
       data-name="Path 112"
       d="m 204.285,725.321 c -8.449,1.09 -19.811,1.057 -22.23,-0.043 -1.842,-0.838 -2.979,-4.506 -3.417,-6.209 l -0.249,0.04 c 0,0 1.2,5.984 3.624,7.085 2.424,1.101 13.781,1.133 22.23,0.043 2.439,-0.315 3.177,-1.285 2.976,-2.566 -0.246,0.818 -1.119,1.416 -2.934,1.65 z"
       transform="translate(-56,-106.019)"
       opacity="0.2" /><path
       id="Path_113"
       data-name="Path 113"
       d="m 439.7,707.337 c 0,30.22 -42.124,20.873 -93.7,20.873 -51.576,0 -93.074,9.347 -93.074,-20.873 0,-30.22 42.118,-36.793 93.694,-36.793 51.576,0 93.08,6.573 93.08,36.793 z"
       transform="translate(-56,-106.019)"
       opacity="0.1" /><path
       id="Path_114"
       data-name="Path 114"
       d="m 439.7,699.9 c 0,30.22 -42.124,20.873 -93.7,20.873 -51.576,0 -93.074,9.347 -93.074,-20.873 0,-30.22 42.114,-36.8 93.69,-36.8 51.576,0 93.084,6.576 93.084,36.8 z"
       transform="translate(-56,-106.019)"
       fill="#3f3d56" /></g><g
     style="fill:none"
     id="g633"
     transform="matrix(22.525531,0,0,22.525531,200.71478,288.9013)"><path
       d="M 2.875,1.21 H 13.441 V 9.692 H 2.875 Z"
       fill="#7c2504"
       id="path606" /><path
       d="m 11.093,1.21 c -1.14,0.782 -1.827,2.105 -1.828,3.523 0,1.747 1.023,3.246 2.482,3.89 v 6.021 h 1.694 V 1.21 Z m -8.218,0 V 14.88 H 4.588 V 9.009 A 4.073,4.225 0 0 0 7.755,4.894 4.073,4.225 0 0 0 5.673,1.21 Z"
       fill="#b04620"
       id="path608" /><path
       d="M 6.35,6.339 C 6.47,6.527 6.56,6.764 6.524,6.984 6.279,7.549 5.764,8.06 5.333,8.424 4.603,9.092 3.891,9.318 2.9,9.417 V 4.002 C 4,4.79 5.58,5.269 6.35,6.339 Z"
       fill="#c96b4b"
       id="path610" /><path
       d="m 4.332,8.389 c -0.158,0 -0.79,0.316 -0.79,0.316 l -0.65,0.561 h -0.07 l -0.034,3.3 0.333,0.28 0.562,-0.105 c 0.37,-0.073 0.72,-0.394 1.106,-0.368 0,0 -0.368,0.375 -0.457,0.614 -0.177,0.595 -0.124,1.405 0.334,1.79 0.25,0.201 0.612,0.202 0.93,0.246 1.464,-0.037 4.222,0.01 5.74,0.035 0.626,-0.22 0.74,-0.879 0.841,-1.422 0.07,-0.409 0.049,-0.903 -0.193,-1.21 -0.215,-0.265 -0.877,-0.527 -0.877,-0.527 0,0 1.117,0.332 1.68,0.482 0.2,0.054 0.601,0.15 0.601,0.15 L 13.511,8.687 12.476,8.389 11.3,8.459 C 9.366,8.905 8.192,8.684 6.386,8.704 L 5.333,8.424 c 0,0 -0.843,-0.035 -1,-0.035 z"
       fill="#e4dcc8"
       id="path612" /><path
       d="M 4.708,2.514 C 3.761,2.536 3.233,2.544 2.9,3.708 c -0.061,0.43 0.13,0.923 0.439,1.228 0.415,0.386 1.612,0.462 2.264,0.738 0.249,0.037 0.546,0.14 0.755,0 C 6.635,5.472 6.703,4.687 6.831,4.304 6.834,3.793 6.588,3.112 6.182,2.707 5.705,2.413 5.202,2.495 4.708,2.514 Z m 7.065,0.1 C 11.573,2.616 11.368,2.638 11.16,2.65 10.642,2.584 10.412,2.736 10.177,3.176 9.834,3.914 9.573,5.69 10.387,6.054 11.302,6.394 11.793,5.573 12.388,5.23 12.659,5.081 12.973,5.032 13.266,4.931 13.315,3.823 13.427,3.448 12.756,2.913 12.434,2.664 12.108,2.612 11.773,2.615 Z"
       fill="#f9f2b3"
       id="path614" /><path
       d="M 2.805,0.663 V 9.95 l -1.516,0.143 a 0.33448655,0.33448655 0 1 0 0.063,0.666 l 1.453,-0.138 v 0.59 l -1.483,0.288 a 0.33409018,0.33409018 0 1 0 0.127,0.656 l 1.356,-0.263 v 3.349 h 11.39 v -4.025 h 1.032 a 0.335,0.335 0 1 0 0,-0.67 H 14.195 V 9.906 L 15.249,9.798 A 0.33418333,0.33418333 0 1 0 15.182,9.133 L 14.195,9.234 V 0.663 Z M 3.71,1.568 h 9.579 V 3.979 A 1.607,1.607 0 0 0 13.201,3.755 c -0.315,-0.63 -0.738,-0.878 -1.277,-0.857 -0.636,10e-4 -1.105,0.415 -1.342,1.009 -0.152,0.398 -0.113,0.704 -0.09,1.082 0.016,0.24 0.4,0.593 0.692,0.537 0.453,-0.088 1.18,-0.482 1.757,-0.765 0.18,-0.088 0.289,-0.19 0.348,-0.303 v 4.869 l -2.427,0.246 a 0.33418333,0.33418333 0 1 0 0.067,0.665 l 2.36,-0.24 v 0.549 h -2.405 a 0.3345,0.3345 0 1 0 0,0.669 h 2.405 v 3.12 H 3.71 v -0.677 c 0.117,0.087 0.348,0.15 0.436,0.11 0.33,-0.153 0.357,-0.46 0.749,-0.83 0.182,-0.171 0.323,-0.42 0.599,-0.562 0.246,-0.126 0.727,-0.052 1.452,-0.207 1.346,-0.232 2.858,-0.122 3.97,0.085 0.707,0.134 0.891,0.457 1.033,0.776 0.11,0.248 0.07,0.353 0.247,0.558 0.137,0.16 0.505,0.353 0.716,0.169 0.168,-0.147 0,-0.502 0.182,-0.682 0.204,-0.204 0.28,-0.442 0.007,-0.745 -0.902,-0.485 -1.542,-0.586 -2.66,-0.737 C 10.242,11.574 10.125,11.349 9.98,11.214 9.635,10.894 9.305,10.731 8.877,10.682 8.893,10.627 8.914,10.478 8.945,10.438 9.64,9.541 10.604,8.971 11.337,8.804 11.61,8.742 11.494,8.412 11.43,8.373 11.285,8.285 11.099,8.28 10.93,8.28 10.611,8.281 10.297,8.36 9.98,8.378 9.028,8.432 8.197,8.46 7.329,8.384 7.042,8.359 6.753,8.326 6.465,8.338 6.002,8.358 5.911,8.592 6.035,8.936 c 0.045,0.128 0.579,0.135 0.84,0.272 0.423,0.22 0.632,0.51 1.103,1.097 0.058,0.071 0.126,0.137 0.167,0.218 0.023,0.046 0.023,0.1 0.03,0.15 -0.514,0.002 -0.712,0.127 -1.025,0.46 -0.363,0.38 -0.283,0.403 -1.243,0.553 -0.22,0.034 -0.458,0.033 -0.678,0.069 -0.413,0.067 -1.056,0.097 -1.375,0.472 -0.062,0.073 -0.1,0.14 -0.143,0.208 v -0.719 l 2.476,-0.48 A 0.33467634,0.33467634 0 1 0 6.059,10.579 l -2.348,0.456 v -0.5 L 6.156,10.304 A 0.33448655,0.33448655 0 1 0 6.093,9.638 L 3.711,9.863 v -5.62 c 0.2,0.094 0.516,0.16 0.657,0.221 C 4.81,4.658 5.105,4.948 5.393,5.098 5.573,5.192 6.259,5.38 6.409,5.245 6.631,5.045 6.671,4.128 6.483,3.707 A 2.12,2.12 0 0 0 5.832,2.853 C 5.742,2.781 5.402,2.7 5.152,2.705 4.902,2.709 4.596,2.758 4.441,2.796 4.126,2.875 3.968,3.055 3.758,3.301 3.746,3.313 3.727,3.351 3.711,3.377 Z"
       fill="#1c0e01"
       id="path616"
       style="fill:#333333" /><path
       d="M 4.487,3.186 C 4.377,3.368 4.437,3.568 4.549,3.719 4.643,3.844 4.771,3.945 4.909,4.017 5.131,4.127 5.269,4.179 5.393,3.955 5.544,3.691 5.484,3.435 5.281,3.235 5.051,3.031 4.7,2.958 4.487,3.185 Z m 7,0.26 c -0.326,0.03 -0.478,0.33 -0.472,0.633 a 0.91,0.91 0 0 0 0.162,0.385 c 0.247,-0.037 0.604,-0.197 0.769,-0.36 0.093,-0.133 0.21,-0.369 0.149,-0.509 -0.152,-0.191 -0.403,-0.18 -0.608,-0.149 z"
       fill="#ffffff"
       id="path618" /></g></svg>
