<?xml version="1.0" encoding="UTF-8" standalone="no"?>
<svg
   width="1129"
   height="663"
   viewBox="0 0 1129 663"
   version="1.1"
   id="svg6138"
   sodipodi:docname="undraw_docusaurus_tree.svg"
   inkscape:version="1.2.2 (732a01da63, 2022-12-09)"
   xmlns:inkscape="http://www.inkscape.org/namespaces/inkscape"
   xmlns:sodipodi="http://sodipodi.sourceforge.net/DTD/sodipodi-0.dtd"
   xmlns="http://www.w3.org/2000/svg"
   xmlns:svg="http://www.w3.org/2000/svg">
  <defs
     id="defs6142" />
  <sodipodi:namedview
     id="namedview6140"
     pagecolor="#ffffff"
     bordercolor="#000000"
     borderopacity="0.25"
     inkscape:showpageshadow="2"
     inkscape:pageopacity="0.0"
     inkscape:pagecheckerboard="0"
     inkscape:deskcolor="#d1d1d1"
     showgrid="false"
     inkscape:zoom="0.66519043"
     inkscape:cx="834.34754"
     inkscape:cy="15.033289"
     inkscape:window-width="3840"
     inkscape:window-height="2066"
     inkscape:window-x="-11"
     inkscape:window-y="-11"
     inkscape:window-maximized="1"
     inkscape:current-layer="svg6138" />
  <title
     id="title6062">Focus on What Matters</title>
  <circle
     cx="321"
     cy="321"
     r="321"
     fill="#f2f2f2"
     id="circle6064"
     style="fill:#f4f1f0;fill-opacity:1" />
  <ellipse
     cx="559"
     cy="635.49998"
     rx="514"
     ry="27.50002"
     fill="#3f3d56"
     id="ellipse6066" />
  <ellipse
     cx="558"
     cy="627"
     rx="460"
     ry="22"
     opacity="0.2"
     id="ellipse6068" />
  <rect
     x="131"
     y="152.5"
     width="840"
     height="50"
     fill="#3f3d56"
     id="rect6070" />
  <path
     d="M166.5,727.3299A21.67009,21.67009,0,0,0,188.1701,749H984.8299A21.67009,21.67009,0,0,0,1006.5,727.3299V296h-840Z"
     transform="translate(-35.5 -118.5)"
     fill="#3f3d56"
     id="path6072"
     style="fill:#311e1e;fill-opacity:1" />
  <path
     d="M984.8299,236H188.1701A21.67009,21.67009,0,0,0,166.5,257.6701V296h840V257.6701A21.67009,21.67009,0,0,0,984.8299,236Z"
     transform="translate(-35.5 -118.5)"
     fill="#3f3d56"
     id="path6074" />
  <path
     d="M984.8299,236H188.1701A21.67009,21.67009,0,0,0,166.5,257.6701V296h840V257.6701A21.67009,21.67009,0,0,0,984.8299,236Z"
     transform="translate(-35.5 -118.5)"
     opacity="0.2"
     id="path6076"
     style="fill:#502d16" />
  <circle
     cx="181"
     cy="147.5"
     r="13"
     fill="#3f3d56"
     id="circle6078" />
  <circle
     cx="217"
     cy="147.5"
     r="13"
     fill="#3f3d56"
     id="circle6080" />
  <circle
     cx="253"
     cy="147.5"
     r="13"
     fill="#3f3d56"
     id="circle6082" />
  <rect
     x="168"
     y="213.5"
     width="337"
     height="386"
     rx="5.33505"
     fill="#606060"
     id="rect6084" />
  <rect
     x="603"
     y="272.5"
     width="284"
     height="22"
     rx="5.47638"
     fill="#2e8555"
     id="rect6086"
     style="fill:#d45500" />
  <rect
     x="537"
     y="352.5"
     width="416"
     height="15"
     rx="5.47638"
     fill="#2e8555"
     id="rect6088"
     style="fill:#d45500" />
  <rect
     x="537"
     y="396.5"
     width="416"
     height="15"
     rx="5.47638"
     fill="#2e8555"
     id="rect6090"
     style="fill:#d45500" />
  <rect
     x="537"
     y="440.5"
     width="416"
     height="15"
     rx="5.47638"
     fill="#2e8555"
     id="rect6092"
     style="fill:#d45500" />
  <rect
     x="537"
     y="484.5"
     width="416"
     height="15"
     rx="5.47638"
     fill="#2e8555"
     id="rect6094"
     style="fill:#d45500" />
  <rect
     x="865"
     y="552.5"
     width="88"
     height="26"
     rx="7.02756"
     fill="#3ecc5f"
     id="rect6096"
     style="fill:#aa8800" />
  <path
     d="M1088.60287,624.61594a30.11371,30.11371,0,0,0,3.98291-15.266c0-13.79652-8.54358-24.98081-19.08256-24.98081s-19.08256,11.18429-19.08256,24.98081a30.11411,30.11411,0,0,0,3.98291,15.266,31.248,31.248,0,0,0,0,30.53213,31.248,31.248,0,0,0,0,30.53208,31.248,31.248,0,0,0,0,30.53208,30.11408,30.11408,0,0,0-3.98291,15.266c0,13.79652,8.54353,24.98081,19.08256,24.98081s19.08256-11.18429,19.08256-24.98081a30.11368,30.11368,0,0,0-3.98291-15.266,31.248,31.248,0,0,0,0-30.53208,31.248,31.248,0,0,0,0-30.53208,31.248,31.248,0,0,0,0-30.53213Z"
     transform="translate(-35.5 -118.5)"
     fill="#3f3d56"
     id="path6098" />
  <ellipse
     cx="1038.00321"
     cy="460.31783"
     rx="19.08256"
     ry="24.9808"
     fill="#3f3d56"
     id="ellipse6100"
     style="fill:#917c6f" />
  <ellipse
     cx="1038.00321"
     cy="429.78574"
     rx="19.08256"
     ry="24.9808"
     fill="#3f3d56"
     id="ellipse6102"
     style="fill:#917c6f" />
  <path
     d="M1144.93871,339.34489a91.61081,91.61081,0,0,0,7.10658-10.46092l-50.141-8.23491,54.22885.4033a91.566,91.566,0,0,0,1.74556-72.42605l-72.75449,37.74139,67.09658-49.32086a91.41255,91.41255,0,1,0-150.971,102.29805,91.45842,91.45842,0,0,0-10.42451,16.66946l65.0866,33.81447-69.40046-23.292a91.46011,91.46011,0,0,0,14.73837,85.83669,91.40575,91.40575,0,1,0,143.68892,0,91.41808,91.41808,0,0,0,0-113.02862Z"
     transform="translate(-35.5 -118.5)"
     fill="#3ecc5f"
     fill-rule="evenodd"
     id="path6104"
     style="fill:#917c6f" />
  <path
     d="M981.6885,395.8592a91.01343,91.01343,0,0,0,19.56129,56.51431,91.40575,91.40575,0,1,0,143.68892,0C1157.18982,436.82067,981.6885,385.60008,981.6885,395.8592Z"
     transform="translate(-35.5 -118.5)"
     opacity="0.1"
     id="path6106"
     style="fill:#917c6f" />
  <g
     style="fill:none"
     id="g633"
     transform="matrix(22.525531,0,0,22.525531,150.12412,224.62698)">
    <path
       d="M 2.875,1.21 H 13.441 V 9.692 H 2.875 Z"
       fill="#7c2504"
       id="path606" />
    <path
       d="m 11.093,1.21 c -1.14,0.782 -1.827,2.105 -1.828,3.523 0,1.747 1.023,3.246 2.482,3.89 v 6.021 h 1.694 V 1.21 Z m -8.218,0 V 14.88 H 4.588 V 9.009 A 4.073,4.225 0 0 0 7.755,4.894 4.073,4.225 0 0 0 5.673,1.21 Z"
       fill="#b04620"
       id="path608" />
    <path
       d="M 6.35,6.339 C 6.47,6.527 6.56,6.764 6.524,6.984 6.279,7.549 5.764,8.06 5.333,8.424 4.603,9.092 3.891,9.318 2.9,9.417 V 4.002 C 4,4.79 5.58,5.269 6.35,6.339 Z"
       fill="#c96b4b"
       id="path610" />
    <path
       d="m 4.332,8.389 c -0.158,0 -0.79,0.316 -0.79,0.316 l -0.65,0.561 h -0.07 l -0.034,3.3 0.333,0.28 0.562,-0.105 c 0.37,-0.073 0.72,-0.394 1.106,-0.368 0,0 -0.368,0.375 -0.457,0.614 -0.177,0.595 -0.124,1.405 0.334,1.79 0.25,0.201 0.612,0.202 0.93,0.246 1.464,-0.037 4.222,0.01 5.74,0.035 0.626,-0.22 0.74,-0.879 0.841,-1.422 0.07,-0.409 0.049,-0.903 -0.193,-1.21 -0.215,-0.265 -0.877,-0.527 -0.877,-0.527 0,0 1.117,0.332 1.68,0.482 0.2,0.054 0.601,0.15 0.601,0.15 L 13.511,8.687 12.476,8.389 11.3,8.459 C 9.366,8.905 8.192,8.684 6.386,8.704 L 5.333,8.424 c 0,0 -0.843,-0.035 -1,-0.035 z"
       fill="#e4dcc8"
       id="path612" />
    <path
       d="M 4.708,2.514 C 3.761,2.536 3.233,2.544 2.9,3.708 c -0.061,0.43 0.13,0.923 0.439,1.228 0.415,0.386 1.612,0.462 2.264,0.738 0.249,0.037 0.546,0.14 0.755,0 C 6.635,5.472 6.703,4.687 6.831,4.304 6.834,3.793 6.588,3.112 6.182,2.707 5.705,2.413 5.202,2.495 4.708,2.514 Z m 7.065,0.1 C 11.573,2.616 11.368,2.638 11.16,2.65 10.642,2.584 10.412,2.736 10.177,3.176 9.834,3.914 9.573,5.69 10.387,6.054 11.302,6.394 11.793,5.573 12.388,5.23 12.659,5.081 12.973,5.032 13.266,4.931 13.315,3.823 13.427,3.448 12.756,2.913 12.434,2.664 12.108,2.612 11.773,2.615 Z"
       fill="#f9f2b3"
       id="path614" />
    <path
       d="M 2.805,0.663 V 9.95 l -1.516,0.143 a 0.33448655,0.33448655 0 1 0 0.063,0.666 l 1.453,-0.138 v 0.59 l -1.483,0.288 a 0.33409018,0.33409018 0 1 0 0.127,0.656 l 1.356,-0.263 v 3.349 h 11.39 v -4.025 h 1.032 a 0.335,0.335 0 1 0 0,-0.67 H 14.195 V 9.906 L 15.249,9.798 A 0.33418333,0.33418333 0 1 0 15.182,9.133 L 14.195,9.234 V 0.663 Z M 3.71,1.568 h 9.579 V 3.979 A 1.607,1.607 0 0 0 13.201,3.755 c -0.315,-0.63 -0.738,-0.878 -1.277,-0.857 -0.636,10e-4 -1.105,0.415 -1.342,1.009 -0.152,0.398 -0.113,0.704 -0.09,1.082 0.016,0.24 0.4,0.593 0.692,0.537 0.453,-0.088 1.18,-0.482 1.757,-0.765 0.18,-0.088 0.289,-0.19 0.348,-0.303 v 4.869 l -2.427,0.246 a 0.33418333,0.33418333 0 1 0 0.067,0.665 l 2.36,-0.24 v 0.549 h -2.405 a 0.3345,0.3345 0 1 0 0,0.669 h 2.405 v 3.12 H 3.71 v -0.677 c 0.117,0.087 0.348,0.15 0.436,0.11 0.33,-0.153 0.357,-0.46 0.749,-0.83 0.182,-0.171 0.323,-0.42 0.599,-0.562 0.246,-0.126 0.727,-0.052 1.452,-0.207 1.346,-0.232 2.858,-0.122 3.97,0.085 0.707,0.134 0.891,0.457 1.033,0.776 0.11,0.248 0.07,0.353 0.247,0.558 0.137,0.16 0.505,0.353 0.716,0.169 0.168,-0.147 0,-0.502 0.182,-0.682 0.204,-0.204 0.28,-0.442 0.007,-0.745 -0.902,-0.485 -1.542,-0.586 -2.66,-0.737 C 10.242,11.574 10.125,11.349 9.98,11.214 9.635,10.894 9.305,10.731 8.877,10.682 8.893,10.627 8.914,10.478 8.945,10.438 9.64,9.541 10.604,8.971 11.337,8.804 11.61,8.742 11.494,8.412 11.43,8.373 11.285,8.285 11.099,8.28 10.93,8.28 10.611,8.281 10.297,8.36 9.98,8.378 9.028,8.432 8.197,8.46 7.329,8.384 7.042,8.359 6.753,8.326 6.465,8.338 6.002,8.358 5.911,8.592 6.035,8.936 c 0.045,0.128 0.579,0.135 0.84,0.272 0.423,0.22 0.632,0.51 1.103,1.097 0.058,0.071 0.126,0.137 0.167,0.218 0.023,0.046 0.023,0.1 0.03,0.15 -0.514,0.002 -0.712,0.127 -1.025,0.46 -0.363,0.38 -0.283,0.403 -1.243,0.553 -0.22,0.034 -0.458,0.033 -0.678,0.069 -0.413,0.067 -1.056,0.097 -1.375,0.472 -0.062,0.073 -0.1,0.14 -0.143,0.208 v -0.719 l 2.476,-0.48 A 0.33467634,0.33467634 0 1 0 6.059,10.579 l -2.348,0.456 v -0.5 L 6.156,10.304 A 0.33448655,0.33448655 0 1 0 6.093,9.638 L 3.711,9.863 v -5.62 c 0.2,0.094 0.516,0.16 0.657,0.221 C 4.81,4.658 5.105,4.948 5.393,5.098 5.573,5.192 6.259,5.38 6.409,5.245 6.631,5.045 6.671,4.128 6.483,3.707 A 2.12,2.12 0 0 0 5.832,2.853 C 5.742,2.781 5.402,2.7 5.152,2.705 4.902,2.709 4.596,2.758 4.441,2.796 4.126,2.875 3.968,3.055 3.758,3.301 3.746,3.313 3.727,3.351 3.711,3.377 Z"
       fill="#1c0e01"
       id="path616"
       style="fill:#333333" />
    <path
       d="M 4.487,3.186 C 4.377,3.368 4.437,3.568 4.549,3.719 4.643,3.844 4.771,3.945 4.909,4.017 5.131,4.127 5.269,4.179 5.393,3.955 5.544,3.691 5.484,3.435 5.281,3.235 5.051,3.031 4.7,2.958 4.487,3.185 Z m 7,0.26 c -0.326,0.03 -0.478,0.33 -0.472,0.633 a 0.91,0.91 0 0 0 0.162,0.385 c 0.247,-0.037 0.604,-0.197 0.769,-0.36 0.093,-0.133 0.21,-0.369 0.149,-0.509 -0.152,-0.191 -0.403,-0.18 -0.608,-0.149 z"
       fill="#ffffff"
       id="path618" />
  </g>
</svg>
