<?xml version="1.0" encoding="UTF-8" standalone="no"?>
<svg
   width="1088"
   height="687.962"
   viewBox="0 0 1088 687.962"
   version="1.1"
   id="svg162"
   sodipodi:docname="acyclic-graph.svg"
   xml:space="preserve"
   inkscape:version="1.2.2 (732a01da63, 2022-12-09)"
   xmlns:inkscape="http://www.inkscape.org/namespaces/inkscape"
   xmlns:sodipodi="http://sodipodi.sourceforge.net/DTD/sodipodi-0.dtd"
   xmlns="http://www.w3.org/2000/svg"
   xmlns:svg="http://www.w3.org/2000/svg"
   xmlns:rdf="http://www.w3.org/1999/02/22-rdf-syntax-ns#"
   xmlns:cc="http://creativecommons.org/ns#"
   xmlns:dc="http://purl.org/dc/elements/1.1/"><defs
     id="defs166" /><sodipodi:namedview
     id="namedview164"
     pagecolor="#ffffff"
     bordercolor="#000000"
     borderopacity="0.25"
     inkscape:showpageshadow="2"
     inkscape:pageopacity="0.0"
     inkscape:pagecheckerboard="0"
     inkscape:deskcolor="#d1d1d1"
     showgrid="false"
     inkscape:zoom="0.48808566"
     inkscape:cx="296.05459"
     inkscape:cy="529.62015"
     inkscape:window-width="1649"
     inkscape:window-height="1259"
     inkscape:window-x="494"
     inkscape:window-y="494"
     inkscape:window-maximized="0"
     inkscape:current-layer="svg162" /><title
     id="title2">Easy to Use</title><path
     id="Path_83"
     data-name="Path 83"
     d="m 961.81,454.442 c -5.27,45.15 -16.22,81.4 -31.25,110.31 -20,38.52 -54.21,54.04 -84.77,70.28 a 193.275,193.275 0 0 1 -27.46,11.94 c -55.61,19.3 -117.85,14.18 -166.74,3.99 A 657.282,657.282 0 0 0 547.5,637.802 q -14.97,-0.675 -29.97,-0.67 c -15.42,0.02 -293.07,5.29 -360.67,-131.57 -16.69,-33.76 -28.13,-75 -32.24,-125.27 -11.63,-142.12 52.29,-235.46 134.74,-296.47 155.97,-115.41 369.76,-110.57 523.43,7.88 102.36,78.9 198.2,198.31 179.02,362.74 z"
     fill="#3f3d56"
     style="fill:#b3b3b3;fill-opacity:1;opacity:0.25842697" /><path
     id="Path_91"
     data-name="Path 91"
     d="m 1088,613.962 c 0,16.569 -243.557,74 -544,74 -300.443,0 -544,-57.431 -544,-74 0,-16.569 243.557,14 544,14 300.443,0 544,-30.568 544,-14 z"
     fill="#3f3d56"
     style="fill:#3c2e2e;fill-opacity:1" /><ellipse
     id="Ellipse_18"
     data-name="Ellipse 18"
     cx="544"
     cy="613.96198"
     rx="544"
     ry="30"
     fill="#3f3d56"
     style="fill:#502d16" /><path
     id="Path_92"
     data-name="Path 92"
     d="m 1088,613.962 c 0,16.569 -243.557,74 -544,74 -300.443,0 -544,-57.431 -544,-74 0,-16.569 243.557,14 544,14 300.443,0 544,-30.568 544,-14 z"
     opacity="0.1"
     style="fill:#552200" /><g
     id="g425"
     style="fill:#000000;opacity:0.16404494"
     transform="translate(5.0082319,6.5743254)"><circle
       style="fill:#000000;fill-opacity:1;stroke:none;stroke-width:4.20699;stroke-linecap:round;stroke-linejoin:round"
       id="circle415"
       cx="388.66101"
       cy="293.49777"
       r="53.987755" /><circle
       style="fill:#000000;fill-opacity:1;stroke:none;stroke-width:4.20699;stroke-linecap:round;stroke-linejoin:round"
       id="circle417"
       cx="490.43005"
       cy="446.1362"
       r="53.987755" /><circle
       style="fill:#000000;fill-opacity:1;stroke:none;stroke-width:4.20699;stroke-linecap:round;stroke-linejoin:round"
       id="circle419"
       cx="617.65979"
       cy="573.38489"
       r="53.987755" /><circle
       style="fill:#000000;fill-opacity:1;stroke:none;stroke-width:4.20699;stroke-linecap:round;stroke-linejoin:round"
       id="circle421"
       cx="617.56812"
       cy="216.61398"
       r="53.987755" /><circle
       style="fill:#000000;fill-opacity:1;stroke:none;stroke-width:4.20699;stroke-linecap:round;stroke-linejoin:round"
       id="circle423"
       cx="490.44235"
       cy="64.276215"
       r="53.987755" /></g><g
     id="g399"><circle
       style="fill:#003e8f;fill-opacity:1;stroke:none;stroke-width:4.20699;stroke-linecap:round;stroke-linejoin:round"
       id="circle3723"
       cx="388.66101"
       cy="293.49777"
       r="53.987755" /><circle
       style="fill:#003e8f;fill-opacity:1;stroke:none;stroke-width:4.20699;stroke-linecap:round;stroke-linejoin:round"
       id="circle3735"
       cx="490.43005"
       cy="446.1362"
       r="53.987755" /><circle
       style="fill:#003e8f;fill-opacity:1;stroke:none;stroke-width:4.20699;stroke-linecap:round;stroke-linejoin:round"
       id="circle3747"
       cx="617.65979"
       cy="573.38489"
       r="53.987755" /><circle
       style="fill:#003e8f;fill-opacity:1;stroke:none;stroke-width:4.20699;stroke-linecap:round;stroke-linejoin:round"
       id="circle3759"
       cx="617.56812"
       cy="216.61398"
       r="53.987755" /><circle
       style="fill:#003e8f;fill-opacity:1;stroke:none;stroke-width:4.20699;stroke-linecap:round;stroke-linejoin:round"
       id="circle356"
       cx="490.44235"
       cy="64.276215"
       r="53.987755" /></g><metadata
     id="metadata560"><rdf:RDF><cc:Work
         rdf:about=""><dc:title>Easy to Use</dc:title></cc:Work></rdf:RDF></metadata><g
     aria-label="A"
     id="g3731"
     style="font-size:6.15127px;font-family:'Times New Roman';-inkscape-font-specification:'Times New Roman, ';text-align:center;text-anchor:middle;stroke-width:0.484352;stroke-linecap:round;stroke-linejoin:round"
     transform="matrix(9.0885723,0,0,9.0885723,-838.79483,158.31357)" /><g
     aria-label="A"
     id="g3743"
     style="font-size:6.15127px;font-family:'Times New Roman';-inkscape-font-specification:'Times New Roman, ';text-align:center;text-anchor:middle;stroke-width:0.484352;stroke-linecap:round;stroke-linejoin:round"
     transform="matrix(9.0885723,0,0,9.0885723,-737.02578,310.95199)" /><g
     aria-label="A"
     id="g3755"
     style="font-size:6.15127px;font-family:'Times New Roman';-inkscape-font-specification:'Times New Roman, ';text-align:center;text-anchor:middle;stroke-width:0.484352;stroke-linecap:round;stroke-linejoin:round"
     transform="matrix(9.0885723,0,0,9.0885723,-609.79604,438.20065)" /><g
     aria-label="A"
     id="g3767"
     style="font-size:6.15127px;font-family:'Times New Roman';-inkscape-font-specification:'Times New Roman, ';text-align:center;text-anchor:middle;stroke-width:0.484352;stroke-linecap:round;stroke-linejoin:round"
     transform="matrix(9.0885723,0,0,9.0885723,-609.8877,81.429774)" /><path
     style="color:#000000;fill:#aa4400;stroke-width:9.08857;stroke-linecap:round;stroke-linejoin:round;-inkscape-stroke:none"
     d="m 528.01534,97.025254 c -1.73515,1.00986 -2.32324,3.235036 -1.31359,4.970306 l 32.87507,56.3243 c 1.00983,1.73518 3.23508,2.32326 4.97036,1.31358 1.7351,-1.00985 2.32322,-3.23505 1.31357,-4.97031 l -32.8751,-56.324296 c -0.48624,-0.8346 -1.28461,-1.44132 -2.21692,-1.68618 -0.93232,-0.24485 -1.9217,-0.11079 -2.75339,0.37263 z"
     id="path6513"
     sodipodi:nodetypes="cccscccc" /><path
     style="color:#000000;fill:#aa4400;stroke-width:9.08857;stroke-linecap:round;stroke-linejoin:round;-inkscape-stroke:none"
     d="m 617.65852,266.6904 a 3.635429,3.635429 0 0 0 -3.62125,3.63897 l 0.23085,220.50438 a 3.635429,3.635429 0 0 0 3.63898,3.63898 3.635429,3.635429 0 0 0 3.62125,-3.63898 L 621.2975,270.32937 a 3.635429,3.635429 0 0 0 -3.63898,-3.63897 z"
     id="path6573" /><path
     style="color:#000000;fill:#aa4400;stroke-width:9.08857;stroke-linecap:round;stroke-linejoin:round;-inkscape-stroke:none"
     d="m 584.14441,252.77352 a 3.635429,3.635429 0 0 0 -4.66861,2.14789 l -45.62035,123.7963 a 3.635429,3.635429 0 0 0 2.16561,4.66854 3.635429,3.635429 0 0 0 4.66862,-2.14789 l 45.62036,-123.79629 a 3.635429,3.635429 0 0 0 -2.16563,-4.66855 z"
     id="path6553" /><path
     style="color:#000000;fill:#aa4400;stroke-width:9.08857;stroke-linecap:round;stroke-linejoin:round;-inkscape-stroke:none"
     d="m 384.37329,343.6415 c -1.39756,1.43315 -1.37359,3.72645 0.0536,5.13007 l 43.95176,43.13522 c 1.42817,1.40252 3.72142,1.38667 5.13007,-0.0355 1.41437,-1.43026 1.39848,-3.73717 -0.0354,-5.14782 l -43.95177,-43.13522 c -1.95017,-1.51655 -3.38283,-0.9106 -5.14824,0.0536 z"
     id="path6533"
     sodipodi:nodetypes="ccccccc" /><circle
     style="fill:#cccccc;fill-opacity:1;stroke:none;stroke-width:3.73336;stroke-linecap:round;stroke-linejoin:round"
     id="circle3725"
     cx="388.66101"
     cy="293.49777"
     r="47.909718" /><circle
     style="fill:#cccccc;fill-opacity:1;stroke:none;stroke-width:3.73336;stroke-linecap:round;stroke-linejoin:round"
     id="circle3737"
     cx="490.43005"
     cy="446.1362"
     r="47.909718" /><circle
     style="fill:#cccccc;fill-opacity:1;stroke:none;stroke-width:3.73336;stroke-linecap:round;stroke-linejoin:round"
     id="circle3749"
     cx="617.65979"
     cy="573.38489"
     r="47.909718" /><circle
     style="fill:#cccccc;fill-opacity:1;stroke:none;stroke-width:3.73336;stroke-linecap:round;stroke-linejoin:round"
     id="circle3761"
     cx="617.56812"
     cy="216.61398"
     r="47.909718" /><path
     style="color:#000000;fill:#aa4400;stroke-width:9.08857;stroke-linecap:round;stroke-linejoin:round;-inkscape-stroke:none"
     d="m 489.67292,114.45681 a 3.635429,3.635429 0 0 0 -3.63898,3.63898 v 245.65772 a 3.635429,3.635429 0 0 0 3.63898,3.63898 3.635429,3.635429 0 0 0 3.63898,-3.63898 V 118.09579 a 3.635429,3.635429 0 0 0 -3.63898,-3.63898 z"
     id="path6465" /><g
     id="g6457"
     style="fill:#aa4400"
     transform="matrix(9.0885723,0,0,9.0885723,-374.558,-486.36527)"><path
       d="m 96.662874,92.864261 -1.57243,3.70003 -1.57257,-3.699971 c 0.915994,0.67271 2.2251,0.672686 3.145,-5.9e-5 z"
       style="fill:#aa4400;fill-rule:evenodd;stroke-width:0.363638"
       id="path6459" /></g><path
     style="color:#000000;fill:#aa4400;stroke:none;stroke-width:9.08857;stroke-linecap:round;stroke-linejoin:round;-inkscape-stroke:none"
     d="M 460.41908,109.50425 399.53274,212.727 c -1.01266,1.73063 -0.43288,3.95441 1.29583,4.97032 1.726,1.01572 3.94839,0.44424 4.97032,-1.27809 l 60.88633,-103.22275 c 1.01267,-1.73062 0.43289,-3.95441 -1.29583,-4.97031 -2.24719,-0.99361 -3.4899,-0.0727 -4.97031,1.27808 z"
     id="path6481"
     sodipodi:nodetypes="ccccccc" /><g
     id="g6473"
     style="fill:#aa4400"
     transform="matrix(9.0885723,0,0,9.0885723,-374.558,-486.36527)"><path
       d="m 87.213168,77.342052 -3.234175,2.388068 0.525268,-3.985831 c 0.447202,1.044794 1.574784,1.709863 2.708907,1.597763 z"
       style="fill:#aa4400;fill-rule:evenodd;stroke-width:0.363638"
       id="path6475" /></g><g
     id="g6505"
     style="fill:#aa4400"
     transform="matrix(9.0885723,0,0,9.0885723,-374.558,-486.36527)"><path
       d="m 104.14535,69.358759 0.50656,3.988252 -3.22293,-2.403217 c 1.13019,0.119401 2.26088,-0.54037 2.71637,-1.585035 z"
       style="fill:#aa4400;fill-rule:evenodd;stroke-width:0.363638"
       id="path6507" /></g><g
     id="g6545"
     style="fill:#aa4400"
     transform="matrix(9.0885723,0,0,9.0885723,-374.558,-486.36527)"><path
       d="m 102.03538,95.234708 -2.754921,2.927999 -0.196072,-4.015509 c 0.626854,0.947965 1.855203,1.400641 2.950993,1.08751 z"
       style="fill:#aa4400;fill-rule:evenodd;stroke-width:0.363638"
       id="path6547" /></g><g
     id="g6525"
     style="fill:#aa4400"
     transform="matrix(9.0885723,0,0,9.0885723,-374.558,-486.36527)"><path
       d="m 89.246791,94.756681 1.538779,3.714151 -3.741972,-1.469833 c 1.121748,-0.182387 2.038828,-1.116584 2.203193,-2.244318 z"
       style="fill:#aa4400;fill-rule:evenodd;stroke-width:0.363638"
       id="path6527" /></g><path
     style="color:#000000;fill:#aa4400;stroke-width:9.08857;stroke-linecap:round;stroke-linejoin:round;-inkscape-stroke:none"
     d="m 525.74319,484.97589 a 3.635429,3.635429 0 0 0 -5.14783,0.0545 3.635429,3.635429 0 0 0 0.0355,5.13004 l 32.28927,31.77456 a 3.635429,3.635429 0 0 0 5.14777,-0.0545 3.635429,3.635429 0 0 0 -0.0364,-5.13014 z"
     id="path6591" /><g
     id="g6585"
     style="fill:#aa4400"
     transform="matrix(9.0885723,0,0,9.0885723,-374.558,-486.36527)"><path
       d="m 102.95322,109.06251 1.53501,3.71571 -3.74047,-1.47363 c 1.12193,-0.18125 2.03995,-1.11451 2.20546,-2.24208 z"
       style="fill:#aa4400;fill-rule:evenodd;stroke-width:0.363638"
       id="path6587" /></g><path
     style="color:#000000;fill:#aa4400;stroke-width:9.08857;stroke-linecap:round;stroke-linejoin:round;-inkscape-stroke:none"
     d="m 540.03285,63.954885 c -0.0818,2.004394 1.47489,3.696459 3.47919,3.780991 60.9347,2.611411 108.31325,27.744788 143.55328,65.892144 35.24012,38.14737 58.21494,89.42423 69.56665,144.01482 8.18935,40.98956 9.24572,82.522 8.36076,124.98562 -1.21205,24.10441 -7.5546,60.1835 -18.97594,92.02177 -11.4236,31.84481 -28.16584,59.11561 -48.22978,66.90398 -1.8727,0.72526 -2.80264,2.83154 -2.07683,4.70406 0.73254,1.8657 2.83646,2.78674 4.70398,2.05911 23.94538,-9.29507 40.73307,-38.54209 52.4546,-71.21751 4.95618,-13.8159 8.96224,-28.30482 12.03045,-42.31758 4.18838,-19.12808 6.62921,-37.36879 7.10917,-50.26104 0.47988,-12.89225 0.58258,-24.09887 0.45443,-35.26976 -0.15723,-13.68018 -0.66255,-27.30677 -1.69665,-40.89006 -1.32911,-17.45563 -3.53291,-34.83974 -6.62957,-50.0328 -3.09675,-15.19307 -6.45816,-28.0548 -10.48494,-40.61621 C 740.49576,196.67244 720.23851,158.83822 692.39058,128.69277 659.41879,93.000743 615.71684,68.170582 561.0678,61.83632 c -5.63491,-0.653104 -11.38616,-1.109615 -15.32206,-1.276036 -3.93599,-0.166412 -5.6281,1.390288 -5.71262,3.3946 z"
     id="path6608"
     sodipodi:nodetypes="ccsccscccsscsscssscc" /><path
     d="m 709.96934,576.04548 -36.52052,-1.15434 26.1769,-25.49208 c -2.68722,9.97325 1.61831,21.06485 10.34362,26.64642 z"
     style="fill:#aa4400;fill-rule:evenodd;stroke-width:3.30495"
     id="path6604" /><path
     d="m 632.18597,484.64816 -14.12537,33.69788 -14.45792,-33.55673 c 8.35504,6.07298 20.25289,6.01418 28.58329,-0.14088 z"
     style="fill:#aa4400;fill-rule:evenodd;stroke-width:3.30495"
     id="path6604-9" /><g
     aria-label="B"
     id="text3615"
     style="font-size:6.15127px;font-family:'Times New Roman';-inkscape-font-specification:'Times New Roman, ';text-align:center;text-anchor:middle;fill:#4067bf;fill-opacity:1;stroke-width:0.484352;stroke-linecap:round;stroke-linejoin:round"
     transform="matrix(9.0885723,0,0,9.0885723,-710.13658,-79.592162)"><path
       d="m 118.91479,38.975569 h 1.76008 q 0.52262,0 0.77792,0.04505 0.25831,0.04205 0.45955,0.180213 0.20424,0.138163 0.3394,0.369437 0.13516,0.228269 0.13516,0.513607 0,0.309365 -0.1682,0.567671 -0.1652,0.258305 -0.45053,0.387457 0.40247,0.117139 0.61873,0.399473 0.21625,0.282333 0.21625,0.663784 0,0.300355 -0.14116,0.585692 -0.13817,0.282334 -0.38145,0.453536 -0.24029,0.168199 -0.59471,0.207245 -0.22226,0.02403 -1.07226,0.03004 h -1.49878 z m 0.88905,0.732866 v 1.018203 h 0.58269 q 0.51962,0 0.64577,-0.01502 0.22827,-0.02703 0.35742,-0.156185 0.13216,-0.132156 0.13216,-0.345408 0,-0.204242 -0.11414,-0.330391 -0.11113,-0.129152 -0.33339,-0.156184 -0.13216,-0.01502 -0.7599,-0.01502 z m 0,1.751069 v 1.177392 h 0.82298 q 0.48057,0 0.60972,-0.02703 0.19823,-0.03604 0.32138,-0.174206 0.12615,-0.141167 0.12615,-0.375444 0,-0.198234 -0.0961,-0.336397 -0.0961,-0.138163 -0.27933,-0.201238 -0.18021,-0.06307 -0.78693,-0.06307 z"
       style="font-weight:bold;font-family:Arial;-inkscape-font-specification:'Arial Bold';fill:#214478;fill-opacity:1"
       id="path3704" /></g><g
     aria-label="D"
     id="text3619"
     style="font-size:6.15127px;font-family:'Times New Roman';-inkscape-font-specification:'Times New Roman, ';text-align:center;text-anchor:middle;fill:#4067bf;fill-opacity:1;stroke-width:0.484352;stroke-linecap:round;stroke-linejoin:round"
     transform="matrix(9.0885723,0,0,9.0885723,-710.13658,-79.592162)"><path
       d="m 130.35667,55.676397 h 1.62492 q 0.54965,0 0.83799,0.0841 0.38746,0.114135 0.66379,0.405479 0.27632,0.291344 0.42049,0.714845 0.14417,0.420497 0.14417,1.039228 0,0.543643 -0.13516,0.937108 -0.16519,0.480567 -0.47155,0.777919 -0.23128,0.225266 -0.62474,0.351415 -0.29435,0.09311 -0.78693,0.09311 h -1.67298 z m 0.88905,0.744881 v 2.916446 h 0.66379 q 0.37244,0 0.53763,-0.04205 0.21626,-0.05406 0.35742,-0.183217 0.14417,-0.129152 0.23428,-0.4235 0.0901,-0.297352 0.0901,-0.807955 0,-0.510604 -0.0901,-0.783927 -0.0901,-0.273323 -0.2523,-0.426504 -0.16219,-0.153181 -0.41148,-0.207245 -0.18622,-0.04205 -0.72987,-0.04205 z"
       style="font-weight:bold;font-family:Arial;-inkscape-font-specification:'Arial Bold';fill:#d45500;fill-opacity:1"
       id="path3707" /></g><g
     aria-label="C"
     id="text3623"
     style="font-size:6.15127px;font-family:'Times New Roman';-inkscape-font-specification:'Times New Roman, ';text-align:center;text-anchor:middle;fill:#4067bf;fill-opacity:1;stroke-width:0.484352;stroke-linecap:round;stroke-linejoin:round"
     transform="matrix(9.0885723,0,0,9.0885723,-710.13658,-79.592162)"><path
       d="m 147.16849,33.246245 0.86202,0.273323 q -0.19824,0.720852 -0.66078,1.072267 -0.45955,0.348412 -1.16838,0.348412 -0.87704,0 -1.44171,-0.597707 -0.56466,-0.60071 -0.56466,-1.639938 0,-1.099299 0.56767,-1.706016 0.56767,-0.609721 1.49276,-0.609721 0.80796,0 1.31255,0.477565 0.30036,0.282333 0.45053,0.810958 l -0.88004,0.210249 q -0.0781,-0.342405 -0.32738,-0.540639 -0.24629,-0.198235 -0.60071,-0.198235 -0.48958,0 -0.79594,0.351416 -0.30336,0.351415 -0.30336,1.138345 0,0.834987 0.30035,1.189406 0.30036,0.354419 0.78093,0.354419 0.35441,0 0.60972,-0.225266 0.2553,-0.225267 0.36643,-0.708838 z"
       style="font-weight:bold;font-family:Arial;-inkscape-font-specification:'Arial Bold';fill:#225500;fill-opacity:1"
       id="path3710" /></g><g
     aria-label="E"
     id="text3627"
     style="font-size:6.15127px;font-family:'Times New Roman';-inkscape-font-specification:'Times New Roman, ';text-align:center;text-anchor:middle;fill:#4067bf;fill-opacity:1;stroke-width:0.484352;stroke-linecap:round;stroke-linejoin:round"
     transform="matrix(9.0885723,0,0,9.0885723,-710.13658,-79.592162)"><path
       d="M 144.69978,74.177704 V 69.7745 h 3.26486 v 0.74488 h -2.3758 v 0.976154 h 2.21061 v 0.741877 h -2.21061 v 1.198416 h 2.4599 v 0.741877 z"
       style="font-weight:bold;font-family:Arial;-inkscape-font-specification:'Arial Bold';fill:#501616;fill-opacity:1"
       id="path3713" /></g><circle
     style="fill:#cccccc;fill-opacity:1;stroke:none;stroke-width:3.73336;stroke-linecap:round;stroke-linejoin:round"
     id="path354"
     cx="490.44235"
     cy="64.276215"
     r="47.909718" /><g
     aria-label="A"
     id="text3507"
     style="font-size:6.15127px;font-family:'Times New Roman';-inkscape-font-specification:'Times New Roman, ';text-align:center;text-anchor:middle;fill:#4067bf;fill-opacity:1;stroke-width:0.484352;stroke-linecap:round;stroke-linejoin:round"
     transform="matrix(9.0885723,0,0,9.0885723,-709.36747,-79.423762)"><path
       d="m 134.18577,17.816294 h -0.96714 l -0.38445,-1.000182 h -1.76008 l -0.36343,1.000182 h -0.94312 l 1.71503,-4.403204 h 0.94011 z m -1.63693,-1.742059 -0.60672,-1.633931 -0.5947,1.633931 z"
       style="font-weight:bold;font-family:Arial;-inkscape-font-specification:'Arial Bold';fill:#782121;fill-opacity:1"
       id="path3701" /></g></svg>
