<?xml version="1.0" encoding="UTF-8" standalone="no"?>
<!-- Uploaded to: SVG Repo, www.svgrepo.com, Generator: SVG Repo Mixer Tools -->

<svg
   width="800px"
   height="800px"
   viewBox="0 0 128 128"
   aria-hidden="true"
   role="img"
   class="iconify iconify--noto"
   preserveAspectRatio="xMidYMid meet"
   version="1.1"
   id="svg8"
   xml:space="preserve"
   xmlns="http://www.w3.org/2000/svg"
   xmlns:svg="http://www.w3.org/2000/svg"><defs
     id="defs12" /><path
     id="path2697"
     style="opacity:1;fill:#803300;fill-opacity:1;stroke:#4d3500;stroke-width:1.44;stroke-linecap:round;stroke-linejoin:round;stroke-dasharray:none;stroke-opacity:1"
     d="M 107.59812 44.155313 C 107.48519 45.749053 106.66895 47.433879 104.77313 48.555937 L 69.421563 68.860625 C 66.790548 70.21727 63.715514 70.068021 60.154688 69.106875 C 43.665262 64.386999 29.019077 55.162768 19.68 45.790312 L 9.555625 78.129375 L 59.575938 107.43063 C 64.034416 110.05421 67.836597 109.15791 71.385312 106.90188 L 115.3625 81.608438 C 116.85539 80.44868 118.23952 79.219757 117.83 76.849375 L 107.59812 44.155313 z M 18.294688 44.272188 L 18.294375 44.273125 C 18.577792 44.662968 18.901458 45.038058 19.259062 45.391875 C 18.901811 45.037759 18.578289 44.662191 18.294688 44.272188 z M 19.265937 45.398438 C 19.383892 45.514918 19.505101 45.629289 19.63 45.740938 C 19.505084 45.629273 19.383758 45.514997 19.265937 45.398438 z " /><path
     id="path3507"
     style="opacity:1;fill:#ac9d93;fill-opacity:1;stroke:#4d3500;stroke-width:1.44;stroke-linecap:round;stroke-linejoin:round;stroke-dasharray:none;stroke-opacity:1"
     d="M 107.59812 44.155313 C 107.4852 45.749051 106.66894 47.433881 104.77313 48.555937 L 69.421563 68.860625 C 68.631403 69.26806 67.800451 69.537291 66.929063 69.691875 L 66.929063 108.82875 C 68.473672 108.504 69.950243 107.81419 71.385312 106.90188 L 115.3625 81.608438 C 116.85539 80.448681 118.23952 79.219755 117.83 76.849375 L 107.59812 44.155313 z " /><path
     id="path2636"
     style="opacity:1;fill:#917c6f;fill-opacity:1;stroke:#4d3500;stroke-width:1.44;stroke-linecap:round;stroke-linejoin:round;stroke-dasharray:none;stroke-opacity:1"
     d="m 6.9796875,73.223125 c -0.5050342,2.948719 1.0663769,3.993697 2.4925,5.172188 L 19.68,45.790312 c -0.01641,-0.01647 -0.03362,-0.03291 -0.05,-0.04937 -2.101139,-1.878239 -3.258069,-4.47219 -2.175938,-6.705 -3.596718,11.054914 -7.406568,23.304004 -10.4743745,34.187187 z" /><path
     style="opacity:1;fill:#ffccaa;fill-opacity:1;stroke:#4d3500;stroke-width:1.44;stroke-linecap:round;stroke-linejoin:round;stroke-dasharray:none;stroke-opacity:1"
     d="M 19.941578,36.580331 55.898734,16.077896 c 2.84376,-1.5286 5.735318,-1.336432 8.662124,0.124635 9.881693,8.916406 20.455278,17.166546 34.773124,21.811101 2.035698,0.623174 4.071408,1.246349 6.107108,1.869523 2.40411,0.763297 3.60157,6.145916 -0.66789,8.672815 L 69.421616,68.86076 c -2.631019,1.356647 -5.70621,1.207286 -9.267044,0.246138 C 43.636143,64.37872 28.966799,55.130444 19.62999,45.740994 16.681121,43.104958 15.588259,39.058227 19.941578,36.580331 Z"
     id="path2484" /><path
     id="path2766"
     style="opacity:1;fill:#917c6f;fill-opacity:1;stroke:#4d3500;stroke-width:1.44;stroke-linecap:round;stroke-linejoin:round;stroke-dasharray:none;stroke-opacity:1"
     d="M 69.673438 68.715937 L 69.421563 68.860625 C 69.258598 68.944655 69.093884 69.022989 68.9275 69.095625 C 68.926688 69.095979 68.925812 69.096208 68.925 69.096563 C 68.924362 69.096841 68.923763 69.097222 68.923125 69.0975 C 68.920637 69.098585 68.918114 69.099543 68.915625 69.100625 C 68.751478 69.171987 68.585616 69.237828 68.418125 69.298438 C 68.416763 69.29893 68.415424 69.299508 68.414062 69.3 C 68.411272 69.301008 68.408416 69.301807 68.405625 69.302813 C 68.237276 69.363439 68.067369 69.41896 67.895625 69.469063 C 67.895214 69.469183 67.894786 69.469255 67.894375 69.469375 C 67.893139 69.469735 67.891861 69.469953 67.890625 69.470313 C 67.719799 69.520039 67.547327 69.564737 67.373125 69.604375 C 67.372607 69.604493 67.372081 69.60457 67.371562 69.604687 C 67.362532 69.606742 67.353415 69.608598 67.344375 69.610625 C 67.177084 69.648129 67.008228 69.681167 66.837812 69.709688 C 66.836763 69.709863 66.835737 69.710137 66.834688 69.710313 C 66.820588 69.712668 66.806308 69.714579 66.792187 69.716875 C 66.622274 69.744484 66.451152 69.768179 66.278125 69.787188 C 66.270342 69.788043 66.262477 69.788849 66.254688 69.789687 C 66.080086 69.80847 65.904034 69.823105 65.72625 69.833438 C 65.725415 69.833486 65.724585 69.833389 65.72375 69.833438 C 65.706436 69.834442 65.688906 69.835012 65.671563 69.835938 C 65.498282 69.845167 65.323498 69.850978 65.147188 69.8525 C 65.134643 69.852609 65.121935 69.852429 65.109375 69.8525 C 64.932836 69.853483 64.754898 69.850823 64.575312 69.844375 C 64.574997 69.844364 64.57469 69.844386 64.574375 69.844375 C 64.548356 69.843441 64.522021 69.841712 64.495937 69.840625 C 64.325997 69.833531 64.15517 69.824081 63.9825 69.810625 C 63.981257 69.810528 63.979993 69.81041 63.97875 69.810312 C 63.952314 69.808248 63.925563 69.805336 63.899062 69.803125 C 63.735979 69.789507 63.571769 69.77342 63.40625 69.754375 C 63.359231 69.748969 63.311903 69.743022 63.264688 69.737188 C 63.103264 69.717227 62.940921 69.695173 62.777188 69.670313 C 62.7732 69.669707 62.769301 69.669358 62.765313 69.66875 C 62.729046 69.663221 62.692318 69.657014 62.655938 69.65125 C 62.485217 69.624193 62.313541 69.595244 62.140313 69.563125 C 62.137916 69.562681 62.135522 69.562008 62.133125 69.561563 C 62.102138 69.555807 62.070755 69.549663 62.039687 69.54375 C 61.863748 69.510253 61.686963 69.474708 61.508437 69.43625 C 61.507065 69.435954 61.505747 69.435608 61.504375 69.435312 C 61.460016 69.42575 61.415144 69.415486 61.370625 69.405625 C 61.215514 69.371262 61.059559 69.335094 60.9025 69.297188 C 60.838127 69.281653 60.773451 69.265803 60.70875 69.249688 C 60.541499 69.208026 60.373512 69.165123 60.204062 69.119687 C 60.202164 69.119179 60.200336 69.118634 60.198438 69.118125 L 59.508125 107.39094 L 59.575938 107.43063 C 64.034411 110.0542 67.836601 109.1579 71.385312 106.90188 L 71.614375 106.77031 L 69.673438 68.715937 z " /><path
     style="opacity:1;fill:#803300;fill-opacity:1;stroke:#4d3500;stroke-width:1.44;stroke-linecap:round;stroke-linejoin:round;stroke-dasharray:none;stroke-opacity:1"
     d="M 104.77313,48.555937 115.3625,81.608438 71.614375,106.77031 69.673438,68.715937 Z"
     id="path2771" /></svg>
