<?xml version="1.0" encoding="UTF-8" standalone="no"?>
<!-- Uploaded to: SVG Repo, www.svgrepo.com, Generator: SVG Repo Mixer Tools -->

<svg
   fill="#000000"
   version="1.1"
   id="Layer_1"
   viewBox="0 0 900 657"
   xml:space="preserve"
   width="900"
   height="657"
   sodipodi:docname="leoCommands.svg"
   inkscape:version="1.2.2 (732a01da63, 2022-12-09)"
   xmlns:inkscape="http://www.inkscape.org/namespaces/inkscape"
   xmlns:sodipodi="http://sodipodi.sourceforge.net/DTD/sodipodi-0.dtd"
   xmlns="http://www.w3.org/2000/svg"
   xmlns:svg="http://www.w3.org/2000/svg"><sodipodi:namedview
   id="namedview18"
   pagecolor="#ffffff"
   bordercolor="#000000"
   borderopacity="0.25"
   inkscape:showpageshadow="2"
   inkscape:pageopacity="0.0"
   inkscape:pagecheckerboard="0"
   inkscape:deskcolor="#d1d1d1"
   showgrid="false"
   inkscape:zoom="0.48808566"
   inkscape:cx="255.07818"
   inkscape:cy="164.93007"
   inkscape:window-width="1649"
   inkscape:window-height="1259"
   inkscape:window-x="114"
   inkscape:window-y="114"
   inkscape:window-maximized="0"
   inkscape:current-layer="Layer_1" /><defs
   id="defs19" />

<path
   id="Path_83"
   data-name="Path 83"
   d="m 861.85192,450.85964 c -5.1919,44.39973 -15.97963,80.04736 -30.78689,108.47695 -19.70361,37.87991 -53.40664,53.14201 -83.51376,69.11215 a 190.41078,190.06331 0 0 1 -27.05306,11.74159 c -54.78589,18.97928 -116.10354,13.94436 -164.26902,3.92369 A 647.54148,646.3598 0 0 0 453.68175,631.17271 q -14.74816,-0.66379 -29.52587,-0.65887 C 408.9644,630.53354 135.42901,635.71594 68.83079,501.13017 52.38813,467.93117 41.11766,427.37646 37.068574,377.94181 25.610923,238.18345 88.58366,146.39449 169.8118,86.398316 323.47042,-27.09389 534.09219,-22.334317 685.48489,94.147373 786.32798,171.73626 880.74769,289.16201 861.85192,450.85964 Z"
   fill="#3f3d56"
   style="opacity:0.602247;fill:#b3b3b3;fill-opacity:1;stroke-width:0.984281" />
<circle
   style="fill:#225500;fill-opacity:1;stroke:none;stroke-width:2.57535;stroke-linecap:round;stroke-linejoin:round"
   id="circle3723"
   cx="554.26044"
   cy="276.79874"
   r="33.049099" /><circle
   style="fill:#003e8f;fill-opacity:1;stroke:none;stroke-width:2.57535;stroke-linecap:round;stroke-linejoin:round"
   id="circle2070"
   cx="317.45422"
   cy="181.57768"
   r="33.049099" /><circle
   style="fill:#003e8f;fill-opacity:1;stroke:none;stroke-width:2.57535;stroke-linecap:round;stroke-linejoin:round"
   id="circle2072"
   cx="326.67722"
   cy="370.77341"
   r="33.049099" /><circle
   style="fill:#782121;fill-opacity:1;stroke:none;stroke-width:2.57535;stroke-linecap:round;stroke-linejoin:round"
   id="circle2068"
   cx="449.6918"
   cy="124.99345"
   r="33.049099" /><circle
   style="fill:#782121;fill-opacity:1;stroke:none;stroke-width:2.57535;stroke-linecap:round;stroke-linejoin:round"
   id="circle2076"
   cx="544.70709"
   cy="465.15231"
   r="33.049099" /><g
   id="machine--learning--02_1_"
   transform="matrix(18.934486,0,0,18.934486,109.22683,20.912959)"
   style="fill:#aa4400;fill-opacity:1">
	<path
   d="M 12.86,8.5 C 12.86,7.475 12.026,6.64 11,6.64 9.974,6.64 9.14,7.475 9.14,8.5 c 0,1.025 0.834,1.86 1.86,1.86 0.413,0 0.791,-0.14 1.1,-0.368 l 3.54,3.17 V 19 h 0.72 V 12.839 L 12.585,9.46 C 12.756,9.178 12.86,8.852 12.86,8.5 Z M 11,9.64 C 10.372,9.64 9.86,9.128 9.86,8.5 9.86,7.872 10.372,7.36 11,7.36 c 0.628,0 1.14,0.512 1.14,1.14 0,0.628 -0.512,1.14 -1.14,1.14 z"
   id="path2"
   style="fill:#aa4400;fill-opacity:1" />
	<path
   d="m 13.36,18.5 c 0,-1.025 -0.834,-1.86 -1.86,-1.86 -1.026,0 -1.86,0.834 -1.86,1.86 0,1.026 0.834,1.86 1.86,1.86 0.453,0 0.862,-0.169 1.185,-0.439 l 2.955,2.256 V 31 h 0.72 v -9.178 l -3.222,-2.46 C 13.275,19.103 13.36,18.813 13.36,18.5 Z m -1.86,1.14 c -0.628,0 -1.14,-0.511 -1.14,-1.14 0,-0.629 0.512,-1.14 1.14,-1.14 0.628,0 1.14,0.511 1.14,1.14 0,0.629 -0.512,1.14 -1.14,1.14 z"
   id="path4"
   style="fill:#aa4400;fill-opacity:1" />
	<path
   d="m 19.86,5.5 c 0,-1.025 -0.835,-1.86 -1.86,-1.86 -1.025,0 -1.86,0.834 -1.86,1.86 0,0.902 0.646,1.655 1.5,1.823 V 31 h 0.721 V 7.323 C 19.214,7.155 19.86,6.402 19.86,5.5 Z M 18,6.64 c -0.629,0 -1.14,-0.512 -1.14,-1.14 0,-0.628 0.511,-1.14 1.14,-1.14 0.629,0 1.14,0.512 1.14,1.14 0,0.628 -0.511,1.14 -1.14,1.14 z"
   id="path6"
   style="fill:#aa4400;fill-opacity:1" />
	<path
   d="m 23,21.64 c -1.025,0 -1.86,0.835 -1.86,1.86 0,0.311 0.084,0.6 0.219,0.857 L 19.64,25.835 V 31 h 0.721 v -4.835 l 1.451,-1.246 c 0.323,0.271 0.734,0.441 1.188,0.441 1.025,0 1.86,-0.835 1.86,-1.86 0,-1.025 -0.835,-1.86 -1.86,-1.86 z m 0,3 c -0.629,0 -1.14,-0.511 -1.14,-1.14 0,-0.629 0.511,-1.14 1.14,-1.14 0.629,0 1.14,0.511 1.14,1.14 0,0.629 -0.511,1.14 -1.14,1.14 z"
   id="path8"
   style="fill:#aa4400;fill-opacity:1" />
	<path
   d="m 23.5,11.64 c -1.025,0 -1.86,0.834 -1.86,1.86 0,0.223 0.046,0.434 0.118,0.633 L 19.64,15.828 V 23 h 0.721 v -6.827 l 1.774,-1.42 c 0.34,0.37 0.824,0.607 1.365,0.607 1.025,0 1.86,-0.834 1.86,-1.86 0,-1.026 -0.835,-1.86 -1.86,-1.86 z m 0,3 c -0.629,0 -1.14,-0.512 -1.14,-1.14 0,-0.628 0.511,-1.14 1.14,-1.14 0.629,0 1.14,0.512 1.14,1.14 0,0.628 -0.511,1.14 -1.14,1.14 z"
   id="path10"
   style="fill:#aa4400;fill-opacity:1" />
	<path
   d="M 17.5,0.64 C 10.991,0.64 5.69,5.911 5.64,12.408 l -3.238,5.983 c -0.212,0.425 -0.19,0.92 0.059,1.323 0.25,0.404 0.682,0.646 1.157,0.646 H 5.64 V 23 c 0,3.456 3.684,6.164 7,6.35 V 31 h 0.72 V 28.64 H 13 C 9.929,28.64 6.36,26.177 6.36,23 V 19.64 H 3.618 C 3.391,19.64 3.193,19.53 3.074,19.337 2.955,19.144 2.945,18.917 3.04,18.724 L 6.316,12.672 6.36,12.5 c 0,-6.143 4.998,-11.14 11.14,-11.14 6.142,0 11.14,4.997 11.14,11.14 0,2.782 -1.031,5.446 -2.903,7.501 L 25.642,20.104 25.64,31 h 0.721 L 26.363,20.382 C 28.298,18.209 29.361,15.416 29.361,12.5 29.36,5.96 24.04,0.64 17.5,0.64 Z"
   id="path12"
   style="fill:#aa4400;fill-opacity:1" />
</g></svg>
