<?xml version="1.0" encoding="UTF-8" standalone="no"?>
<svg
   width="1129"
   height="663"
   viewBox="0 0 1129 663"
   version="1.1"
   id="svg6138"
   sodipodi:docname="undraw_docusaurus_tree.svg"
   inkscape:version="1.2.2 (732a01da63, 2022-12-09)"
   xmlns:inkscape="http://www.inkscape.org/namespaces/inkscape"
   xmlns:sodipodi="http://sodipodi.sourceforge.net/DTD/sodipodi-0.dtd"
   xmlns="http://www.w3.org/2000/svg"
   xmlns:svg="http://www.w3.org/2000/svg">
  <defs
     id="defs6142" />
  <sodipodi:namedview
     id="namedview6140"
     pagecolor="#ffffff"
     bordercolor="#000000"
     borderopacity="0.25"
     inkscape:showpageshadow="2"
     inkscape:pageopacity="0.0"
     inkscape:pagecheckerboard="0"
     inkscape:deskcolor="#d1d1d1"
     showgrid="false"
     inkscape:zoom="0.66519042"
     inkscape:cx="386.35553"
     inkscape:cy="234.51931"
     inkscape:window-width="3840"
     inkscape:window-height="2066"
     inkscape:window-x="-11"
     inkscape:window-y="-11"
     inkscape:window-maximized="1"
     inkscape:current-layer="svg6138"
     showguides="true" />
  <title
     id="title6062">Focus on What Matters</title>
  <rect
     style="fill:#3f3d56;fill-opacity:1;stroke-width:3.02362;stroke-linecap:round;stroke-linejoin:round"
     id="rect9269"
     width="15.413704"
     height="205.69322"
     x="997.74457"
     y="209.78215" />
  <path
     id="rect9271"
     style="fill:#3f3d56;fill-opacity:1;stroke-width:3.02362;stroke-linecap:round;stroke-linejoin:round"
     d="m 1042.6062,68.976628 14.7732,4.397278 -44.8618,140.805504 -14.77302,-4.39728 z"
     sodipodi:nodetypes="ccccc" />
  <path
     id="rect9264"
     style="fill:#917c6f;fill-opacity:1;stroke-width:3.02362;stroke-linecap:round;stroke-linejoin:round"
     d="M 924.9771,310.49295 H 1085.74 l -22,311.18909 H 944.9771 Z"
     sodipodi:nodetypes="ccccc" />
  <circle
     cx="321"
     cy="321"
     r="321"
     fill="#f2f2f2"
     id="circle6064"
     style="fill:#f4f1f0;fill-opacity:1" />
  <rect
     style="fill:#917c6f;fill-opacity:1;stroke-width:3.02362;stroke-linecap:round;stroke-linejoin:round"
     id="rect9267"
     width="178.89613"
     height="21.798269"
     x="910.323"
     y="317.21228"
     transform="rotate(-1.3351777)" />
  <ellipse
     cx="559"
     cy="635.49998"
     rx="514"
     ry="27.50002"
     fill="#3f3d56"
     id="ellipse6066" />
  <ellipse
     cx="558"
     cy="627"
     rx="460"
     ry="22"
     opacity="0.2"
     id="ellipse6068" />
  <rect
     x="131"
     y="152.5"
     width="840"
     height="50"
     fill="#3f3d56"
     id="rect6070" />
  <path
     d="M166.5,727.3299A21.67009,21.67009,0,0,0,188.1701,749H984.8299A21.67009,21.67009,0,0,0,1006.5,727.3299V296h-840Z"
     transform="translate(-35.5 -118.5)"
     fill="#3f3d56"
     id="path6072"
     style="fill:#311e1e;fill-opacity:1" />
  <path
     d="M984.8299,236H188.1701A21.67009,21.67009,0,0,0,166.5,257.6701V296h840V257.6701A21.67009,21.67009,0,0,0,984.8299,236Z"
     transform="translate(-35.5 -118.5)"
     fill="#3f3d56"
     id="path6074" />
  <path
     d="M984.8299,236H188.1701A21.67009,21.67009,0,0,0,166.5,257.6701V296h840V257.6701A21.67009,21.67009,0,0,0,984.8299,236Z"
     transform="translate(-35.5 -118.5)"
     opacity="0.2"
     id="path6076"
     style="fill:#502d16" />
  <circle
     cx="181"
     cy="147.5"
     r="13"
     fill="#3f3d56"
     id="circle6078" />
  <circle
     cx="217"
     cy="147.5"
     r="13"
     fill="#3f3d56"
     id="circle6080" />
  <circle
     cx="253"
     cy="147.5"
     r="13"
     fill="#3f3d56"
     id="circle6082" />
  <rect
     x="175.51665"
     y="202.5"
     width="424.09164"
     height="397"
     rx="5.3350501"
     fill="#606060"
     id="rect6084"
     style="fill:#cccccc" />
  <rect
     x="628.35175"
     y="243.54645"
     width="202.76636"
     height="22"
     rx="3.9099493"
     fill="#2e8555"
     id="rect6086"
     style="fill:#d45500;stroke-width:0.844965" />
  <rect
     x="628.35175"
     y="335.57309"
     width="297.00986"
     height="15"
     rx="3.9099493"
     fill="#2e8555"
     id="rect6088"
     style="fill:#d45500;stroke-width:0.844965" />
  <rect
     x="628.35175"
     y="379.57309"
     width="297.00986"
     height="15"
     rx="3.9099493"
     fill="#2e8555"
     id="rect6090"
     style="fill:#d45500;stroke-width:0.844965" />
  <rect
     x="628.35175"
     y="423.57309"
     width="297.00986"
     height="15"
     rx="3.9099493"
     fill="#2e8555"
     id="rect6092"
     style="fill:#d45500;stroke-width:0.844965" />
  <rect
     x="628.35175"
     y="467.57309"
     width="297.00986"
     height="15"
     rx="3.9099493"
     fill="#2e8555"
     id="rect6094"
     style="fill:#d45500;stroke-width:0.844965" />
  <path
     id="rect732"
     style="fill:#4d4d4d;fill-opacity:1;stroke:#000000;stroke-width:0.121542;stroke-linecap:round;stroke-linejoin:round"
     d="m 251.24842,348.08477 c 0,-1.19124 -0.45651,-2.38237 -1.36931,-3.29516 l -0.30881,-0.30882 c -1.82558,-1.82559 -4.76496,-1.82559 -6.59055,0 l -13.41304,13.41283 -13.41305,-13.41283 c -1.82558,-1.82559 -4.76496,-1.82559 -6.59055,0 l -0.30881,0.30882 c -1.82559,1.82558 -1.82559,4.76496 0,6.59055 l 16.70821,16.70821 0.30881,0.30903 c 1.82559,1.82559 4.76518,1.82559 6.59077,0 l 0.30881,-0.30903 16.70821,-16.70821 c 0.9128,-0.9128 1.36931,-2.10414 1.36931,-3.29539 z" />
  <rect
     style="fill:#ffffff;stroke-width:3.02362;stroke-linecap:round;stroke-linejoin:round"
     id="rect1534-5"
     width="86.739838"
     height="47.971077"
     x="285.33408"
     y="333.05508"
     rx="0" />
  <g
     style="fill:none"
     id="g359"
     transform="matrix(6.406927,0,0,6.406927,280.06949,302.55713)">
    <path
       d="m 7.074,4.5 v 8 h 1 v -8 z"
       fill="#e54a16"
       id="path341" />
    <path
       d="m 0,4 v 9 H 15.15 V 4 Z m 1,1 h 13.15 v 7 H 1 Z"
       fill="#4d4d4d"
       id="path343" />
    <path
       d="m 9.075,6 v 5 H 13.15 V 6 Z m 1,1 h 2.076 v 3 h -2.076 z"
       fill="#42a5f5"
       id="path345" />
  </g>
  <rect
     style="fill:#ffffff;stroke-width:3.02362;stroke-linecap:round;stroke-linejoin:round"
     id="rect1534-9"
     width="86.739838"
     height="47.971077"
     x="398.23294"
     y="431.52313"
     rx="0" />
  <g
     id="g3847"
     transform="matrix(0.12059873,0,0,0.12059873,309.23857,538.74534)">
    <path
       id="path3835"
       style="fill:#999999;fill-opacity:1;stroke:#000000;stroke-width:1.00782;stroke-linecap:round;stroke-linejoin:round"
       d="m 117.37705,-870.1638 c -9.87777,0 -19.754565,3.78538 -27.323417,11.35424 l -2.560668,2.56067 c -15.137698,15.13769 -15.137698,39.51091 0,54.64861 L 198.7116,-690.37985 87.492965,-579.15942 c -15.137698,15.1377 -15.137698,39.51092 0,54.64861 l 2.560674,2.56068 c 15.137691,15.13769 39.510911,15.13769 54.648611,0 l 138.54384,-138.54384 2.56246,-2.56067 c 15.13771,-15.1377 15.13771,-39.51271 10e-6,-54.65042 l -2.56247,-2.56066 -138.54384,-138.54384 c -7.56885,-7.56885 -17.44744,-11.35423 -27.3252,-11.35424 z" />
    <g
       style="fill:none"
       id="g3845"
       transform="matrix(53.125991,0,0,53.125991,697.0277,-1137.1696)">
      <path
         d="m 0,4 v 9 H 15.15 V 4 Z m 1,1 h 13.15 v 7 H 1 Z"
         fill="#4d4d4d"
         id="path3839" />
      <path
         d="m 9.075,6 v 5 H 13.15 V 6 Z m 1,1 h 2.076 v 3 h -2.076 z"
         fill="#42a5f5"
         id="path3841" />
      <path
         d="m 3.56,5.65 v 2 h 1 V 7.371 A 1.5,1.5 0 1 1 2.29,9.275 L 1.367,9.67 A 2.5,2.5 0 0 0 6.074,8.5 2.5,2.5 0 0 0 5.25,6.65 h 0.31 v -1 z"
         fill="#e54a16"
         id="path3843" />
    </g>
  </g>
  <rect
     style="fill:#ffffff;stroke-width:3.02362;stroke-linecap:round;stroke-linejoin:round"
     id="rect1534-4"
     width="86.739838"
     height="47.971077"
     x="398.60876"
     y="534.87701"
     rx="0" />
  <g
     id="g3894"
     transform="matrix(0.12059873,0,0,0.12059873,309.23857,640.99579)">
    <path
       id="path3882"
       style="fill:#999999;fill-opacity:1;stroke:#000000;stroke-width:1.00782;stroke-linecap:round;stroke-linejoin:round"
       d="m 117.37705,-870.1638 c -9.87777,0 -19.754565,3.78538 -27.323417,11.35424 l -2.560668,2.56067 c -15.137698,15.13769 -15.137698,39.51091 0,54.64861 L 198.7116,-690.37985 87.492965,-579.15942 c -15.137698,15.1377 -15.137698,39.51092 0,54.64861 l 2.560674,2.56068 c 15.137691,15.13769 39.510911,15.13769 54.648611,0 l 138.54384,-138.54384 2.56246,-2.56067 c 15.13771,-15.1377 15.13771,-39.51271 10e-6,-54.65042 l -2.56247,-2.56066 -138.54384,-138.54384 c -7.56885,-7.56885 -17.44744,-11.35423 -27.3252,-11.35424 z" />
    <g
       style="fill:none"
       id="g3892"
       transform="matrix(53.125991,0,0,53.125991,697.0277,-1137.1696)">
      <path
         d="m 0,4 v 9 H 15.15 V 4 Z m 1,1 h 13.15 v 7 H 1 Z"
         fill="#4d4d4d"
         id="path3886" />
      <path
         d="m 9.075,6 v 5 H 13.15 V 6 Z m 1,1 h 2.076 v 3 h -2.076 z"
         fill="#42a5f5"
         id="path3888" />
      <path
         d="m 3.56,5.65 v 2 h 1 V 7.371 A 1.5,1.5 0 1 1 2.29,9.275 L 1.367,9.67 A 2.5,2.5 0 0 0 6.074,8.5 2.5,2.5 0 0 0 5.25,6.65 h 0.31 v -1 z"
         fill="#e54a16"
         id="path3890" />
    </g>
  </g>
  <rect
     style="fill:#ffffff;stroke-width:3.02362;stroke-linecap:round;stroke-linejoin:round"
     id="rect1534"
     width="86.739838"
     height="47.971077"
     x="285.33408"
     y="225.25896"
     rx="0" />
  <g
     id="g3992"
     transform="matrix(0.12059873,0,0,0.12059873,195.99399,331.86886)">
    <path
       id="path3980"
       style="fill:#999999;fill-opacity:1;stroke:#000000;stroke-width:1.00782;stroke-linecap:round;stroke-linejoin:round"
       d="m 117.37705,-870.1638 c -9.87777,0 -19.754565,3.78538 -27.323417,11.35424 l -2.560668,2.56067 c -15.137698,15.13769 -15.137698,39.51091 0,54.64861 L 198.7116,-690.37985 87.492965,-579.15942 c -15.137698,15.1377 -15.137698,39.51092 0,54.64861 l 2.560674,2.56068 c 15.137691,15.13769 39.510911,15.13769 54.648611,0 l 138.54384,-138.54384 2.56246,-2.56067 c 15.13771,-15.1377 15.13771,-39.51271 10e-6,-54.65042 l -2.56247,-2.56066 -138.54384,-138.54384 c -7.56885,-7.56885 -17.44744,-11.35423 -27.3252,-11.35424 z" />
    <g
       style="fill:none"
       id="g3990"
       transform="matrix(53.125991,0,0,53.125991,697.0277,-1137.1696)">
      <path
         d="m 0,4 v 9 H 15.15 V 4 Z m 1,1 h 13.15 v 7 H 1 Z"
         fill="#4d4d4d"
         id="path3984" />
      <path
         d="m 9.075,6 v 5 H 13.15 V 6 Z m 1,1 h 2.076 v 3 h -2.076 z"
         fill="#42a5f5"
         id="path3986" />
    </g>
  </g>
  <path
     d="m 457.71563,273.28982 h -10.58831 l -4.20899,-10.95006 H 423.64886 L 419.67,273.28982 h -10.32534 l 18.77627,-48.20657 h 10.29238 z m -17.92122,-19.07218 -6.64241,-17.88838 -6.51082,17.88838 z"
     style="font-weight:bold;font-size:6.15127px;font-family:Arial;-inkscape-font-specification:'Arial Bold';text-align:center;text-anchor:middle;fill:#4d4d4d;stroke-width:5.30272;stroke-linecap:round;stroke-linejoin:round"
     id="path3701-9-5" />
  <path
     d="m 443.77327,364.09768 9.43745,2.99236 q -2.17034,7.89193 -7.23426,11.73925 -5.03119,3.81444 -12.7915,3.81444 -9.6019,0 -15.78394,-6.54374 -6.18194,-6.57661 -6.18194,-17.95415 0,-12.0352 6.21489,-18.67758 6.21489,-6.67527 16.34284,-6.67527 8.8456,0 14.36988,5.22842 3.28836,3.091 4.93244,8.87842 l -9.63474,2.30182 q -0.85505,-3.74867 -3.58418,-5.91895 -2.6964,-2.17029 -6.57661,-2.17029 -5.35996,0 -8.71401,3.84732 -3.3212,3.84732 -3.3212,12.46268 0,9.1415 3.28825,13.0217 3.28836,3.8802 8.54967,3.8802 3.88011,0 6.67526,-2.46623 2.79504,-2.46623 4.0117,-7.7604 z"
     style="font-weight:bold;font-size:6.15127px;font-family:Arial;-inkscape-font-specification:'Arial Bold';text-align:center;text-anchor:middle;fill:#4d4d4d;stroke-width:5.30272;stroke-linecap:round;stroke-linejoin:round"
     id="path3710-5" />
  <path
     d="m 514.23305,431.95973 h 17.78973 q 6.01761,0 9.17437,0.92074 4.24194,1.24955 7.26722,4.43921 3.02517,3.18965 4.60355,7.82617 1.57838,4.60363 1.57838,11.37754 0,5.95184 -1.47974,10.25952 -1.80851,5.26128 -5.16256,8.51668 -2.53207,2.4663 -6.83969,3.8473 -3.22257,1.0194 -8.61537,1.0194 h -18.31589 z m 9.73338,8.15501 v 31.92945 h 7.26721 q 4.0775,0 5.88601,-0.4604 2.36763,-0.59182 3.91306,-2.00584 1.57838,-1.41396 2.56491,-4.63651 0.98642,-3.25543 0.98642,-8.84554 0,-5.59013 -0.98642,-8.58249 -0.98642,-2.99236 -2.76219,-4.66939 -1.77567,-1.67704 -4.50491,-2.26893 -2.03875,-0.46037 -7.99067,-0.46037 z"
     style="font-weight:bold;font-size:6.15127px;font-family:Arial;-inkscape-font-specification:'Arial Bold';text-align:center;text-anchor:middle;fill:#4d4d4d;stroke-width:5.30272;stroke-linecap:round;stroke-linejoin:round"
     id="path3707-5" />
  <path
     d="m 514.95027,582.41671 v -48.2065 h 35.7439 v 8.155 h -26.01042 v 10.687 h 24.20191 v 8.1221 h -24.20191 v 13.1203 h 26.93115 v 8.1221 z"
     style="font-weight:bold;font-size:6.15127px;font-family:Arial;-inkscape-font-specification:'Arial Bold';text-align:center;text-anchor:middle;fill:#4d4d4d;stroke-width:5.30272;stroke-linecap:round;stroke-linejoin:round"
     id="path3713-2" />
</svg>
